<svg xmlns="http://www.w3.org/2000/svg" width="48.166" height="66.099" viewBox="0 0 48.166 66.099">
  <path fill="rgb(68,85,107)" fill-rule="evenodd" d="M44.36138916 14.89086914L33.27560425 3.80505371c-5.0734253-5.0734253-13.31134033-5.0734253-18.38476563 0L3.80505372 14.89086914c-5.0734253 5.07336426-5.0734253 13.31134033 0 18.38476563l11.0857849 11.08575439c1.74655152 1.74658203 3.86816407 2.89190674 6.1065979 3.43591309v9.20013427H10.54821777c-2.51165771 0-4.55078125 2.03912354-4.55078125 4.55078125 0 2.51165772 2.03912354 4.55078125 4.55078125 4.55078125h26.7265625c2.51165772 0 4.55078125-2.03912353 4.55078125-4.55078125 0-2.51165771-2.03912353-4.55078125-4.55078125-4.55078125H26.99743652v-9.15966797c2.30148316-.52642822 4.48703003-1.6852417 6.27816773-3.47637939l11.08578491-11.0857544c5.0734253-5.07342529 5.0734253-13.31140136 0-18.38476562zm-4.90124512 3.8829956L29.38043213 8.69415285c-2.92892456-2.92895509-7.67767334-2.92895509-10.6065979 0L8.6941223 18.77386473c-2.92892456 2.92889405-2.92892456 7.67767335 0 10.60656739l10.07971192 10.07971191c2.92892456 2.92895508 7.67767334 2.92895508 10.6065979 0l10.07971191-10.07971191c2.92892456-2.92889404 2.92892456-7.67767334 0-10.60656738zm-10.7868042-9.37261962c-2.53842163-2.53839112-6.6539917-2.53839112-9.1923828 0L9.40124511 19.48095703c-2.53842163 2.53839111-2.53842163 6.6539917 0 9.19238281l10.07971191 10.07971192c2.53839111 2.53839111 6.65396118 2.53839111 9.19238281 0l10.0796814-10.07971192c2.53842163-2.53839111 2.53842163-6.6539917 0-9.1923828L28.67333984 9.40124511zm1.24871827 14.85528564c0-3.03552246-2.46447754-5.5-5.5-5.5-3.03552247 0-5.5 2.46447754-5.5 5.5s2.46447753 5.5 5.5 5.5c3.03552246 0 5.5-2.46447754 5.5-5.5z"/>
</svg>
