<svg xmlns="http://www.w3.org/2000/svg" width="32" height="63" viewBox="0 0 32 63">
  <path fill="rgb(68,85,107)" fill-rule="evenodd" d="M23 0H9C4.03277588 0 0 4.03276062 0 9v45c0 4.96722412 4.03277588 9 9 9h14c4.96722412 0 9-4.03277588 9-9V9c0-4.96723938-4.03277588-9-9-9zm-3 4.5h-8c-4.69442749 0-8.5 3.80557251-8.5 8.5v23c0 4.69442749 3.80557251 8.5 8.5 8.5h8c4.69442749 0 8.5-3.80557251 8.5-8.5V13c0-4.69442749-3.80557251-8.5-8.5-8.5zm-8 1c-4.14215088 0-7.5 3.35786438-7.5 7.5v23c0 4.14213562 3.35784912 7.5 7.5 7.5h8c4.14215088 0 7.5-3.35786438 7.5-7.5V13c0-4.14213562-3.35784912-7.5-7.5-7.5h-8zm7 5.5c0-1.65574646-1.3442688-3-3-3s-3 1.34425354-3 3 1.3442688 3 3 3 3-1.34425354 3-3zm-6 6H8c-.5519104 0-1 .4480896-1 1v3c0 .5519104.4480896 1 1 1h5c.5519104 0 1-.4480896 1-1v-3c0-.5519104-.4480896-1-1-1zm6 0h5c.5519104 0 1 .4480896 1 1v3c0 .5519104-.4480896 1-1 1h-5c-.5519104 0-1-.4480896-1-1v-3c0-.5519104.4480896-1 1-1zM8 25h5c.5519104 0 1 .4480896 1 1v3c0 .5519104-.4480896 1-1 1H8c-.5519104 0-1-.4480896-1-1v-3c0-.5519104.4480896-1 1-1zm16 0h-5c-.5519104 0-1 .4480896-1 1v3c0 .5519104.4480896 1 1 1h5c.5519104 0 1-.4480896 1-1v-3c0-.5519104-.4480896-1-1-1zm-11 8H8c-.5519104 0-1 .4480896-1 1v3c0 .5519104.4480896 1 1 1h5c.5519104 0 1-.4480896 1-1v-3c0-.5519104-.4480896-1-1-1zm6 0h5c.5519104 0 1 .4480896 1 1v3c0 .5519104-.4480896 1-1 1h-5c-.5519104 0-1-.4480896-1-1v-3c0-.5519104.4480896-1 1-1z"/>
</svg>
