<svg xmlns="http://www.w3.org/2000/svg" width="58" height="52" viewBox="0 0 58 52">
  <path fill="rgb(68,85,107)" fill-rule="evenodd" d="M24 0h11c1.1038208 0 2 .8961792 2 2h13c4.41531372 0 8 3.58468628 8 8v34c0 4.41531372-3.58468628 8-8 8H8c-4.41531372 0-8-3.58468628-8-8V10c0-4.41531372 3.58468628-8 8-8h14c0-1.1038208.8961792-2 2-2zm-8 14.5c0-2.48361206-2.01638794-4.5-4.5-4.5S7 12.01638794 7 14.5 9.01638794 19 11.5 19s4.5-2.01638794 4.5-4.5zm4.5.5c.82788086 0 1.5.67211914 1.5 1.5s-.67211914 1.5-1.5 1.5-1.5-.67211914-1.5-1.5.67211914-1.5 1.5-1.5zm7.5 1.5c0-.82788086-.67211914-1.5-1.5-1.5s-1.5.67211914-1.5 1.5.67211914 1.5 1.5 1.5 1.5-.67211914 1.5-1.5z"/>
</svg>
