<svg xmlns="http://www.w3.org/2000/svg" width="55" height="51.269" viewBox="0 0 55 51.269">
  <path fill="rgb(68,85,107)" fill-rule="evenodd" d="M25.63427734 0C25.75637817 0 25.8782959.0008545 26 .00256348V0l.01620483.00280762c2.7501526.04025268 5.39605713.51449585 7.87213135 1.35723877L47.5291748 3.71191406C51.8460083 4.45620728 55 8.2005005 55 12.5810547V38.4189453c0 4.3805542-3.1539917 8.12484741-7.4708252 8.86914063l-12.29626464 2.12002563c-2.965271 1.19970703-6.20541382 1.86044312-9.59863282 1.86044312C11.48632812 51.26855469 0 39.78222656 0 25.63427734 0 11.48632812 11.48632813 0 25.63427734 0zM18 13h-3v10h3V13zm13 0h3v10h-3V13zm-3 20c0-1.6557312-1.3442688-3-3-3s-3 1.3442688-3 3v3h6v-3z"/>
</svg>
