<svg xmlns="http://www.w3.org/2000/svg" width="63.127" height="63.127" viewBox="0 0 63.127 63.127">
  <path fill="rgb(68,85,107)" fill-rule="evenodd" d="M63.12680054 31.56341553C63.12680054 14.1430664 48.98373414 0 31.56341553 0 14.14309693 0 0 14.1430664 0 31.56341553 0 48.9837036 14.14309692 63.12683105 31.56341553 63.12683105c17.4203186 0 31.563385-14.14312744 31.563385-31.56341552zm-56.06341553 0c0 13.53094482 10.96902466 24.5 24.5 24.5s24.5-10.96905518 24.5-24.5c0-13.53100586-10.96902466-24.5-24.5-24.5s-24.5 10.96899414-24.5 24.5zm24.5 23.5c12.97869873 0 23.5-10.52130127 23.5-23.5s-10.52130127-23.5-23.5-23.5-23.5 10.52130127-23.5 23.5 10.52130127 23.5 23.5 23.5zm6-23.5c0-3.3114624-2.68850708-6-6-6s-6 2.6885376-6 6 2.68850708 6 6 6 6-2.6885376 6-6z"/>
</svg>
