<svg xmlns="http://www.w3.org/2000/svg" width="61" height="63" viewBox="0 0 61 63">
  <path fill="rgb(68,85,107)" fill-rule="evenodd" d="M14 0h33c7.72680664 0 14 6.27319336 14 14v35c0 7.72680664-6.27319336 14-14 14H14C6.27319336 63 0 56.72680664 0 49V14C0 6.27319336 6.27319336 0 14 0zm10.078125 20.34375h1.28125c.5416565 0 .94268799-.14190674 1.203125-.42578125.2604065-.28387451.390625-.67840576.390625-1.18359375 0-.45831299-.1302185-.82550049-.390625-1.1015625-.26043701-.27606201-.638031-.4140625-1.1328125-.4140625q-.640625 0-1.078125.375c-.29168701.25-.4375.578125-.4375.984375H21.703125l-.015625-.046875c-.03125-.890625.30987549-1.625 1.0234375-2.203125.7135315-.578125 1.59893799-.8671875 2.65625-.8671875 1.17706299 0 2.11587524.28125 2.81640625.84375.70050049.5625 1.05078125 1.36456299 1.05078125 2.40625 0 .49481201-.15625.96484375-.46875 1.41015625-.31253052.4453125-.7421875.79296875-1.2890625 1.04296875q.94528198.3359375 1.44140625 1.03125c.330719.46356201.49609375 1.00262451.49609375 1.6171875 0 1.04168701-.37890625 1.86065674-1.13671875 2.45703125-.75784302.59637451-1.72787476.89453125-2.91015625.89453125-1.05731201 0-1.96484375-.27996826-2.72265625-.83984375-.75784302-.55987549-1.12371826-1.35028076-1.09765625-2.37109375l.015625-.046875h2.2109375c0 .4375.15621948.79815674.46875 1.08203125.3125.28387451.70831299.42578125 1.1875.42578125.5260315 0 .94137573-.14581299 1.24609375-.4375.3046875-.29168701.45703125-.6875.45703125-1.1875 0-.59893799-.14974976-1.03778076-.44921875-1.31640625-.29949951-.27862549-.74090576-.41796875-1.32421875-.41796875h-1.28125V20.34375zM30.953125 27h7.765625v-1.75H33.9375l-.015625-.0390625L35.9453125 23c.8697815-.94268799 1.49346924-1.70440674 1.87109375-2.28515625.377594-.58074951.56640625-1.21484375.56640625-1.90234375 0-1.015625-.33462524-1.828125-1.00390625-2.4375-.669281-.609375-1.58984375-.9140625-2.76171875-.9140625-1.1875 0-2.13150024.35546875-2.83203125 1.06640625-.700531.7109375-1.03775024 1.57940674-1.01171875 2.60546875l.015625.046875h2.21875c0-.59375.13671875-1.06903076.41015625-1.42578125.2734375-.35675049.67315674-.53515625 1.19921875-.53515625.4739685 0 .83984375.15234375 1.09765625.45703125s.38671875.69659424.38671875 1.17578125c0 .359375-.111969.74871826-.3359375 1.16796875-.2239685.41925049-.6015625.93359375-1.1328125 1.54296875l-3.6796875 3.9453125V27zm10.79199219-11c.96316528 0 1.74511718.78198242 1.74511718 1.74511719 0 .96313476-.7819519 1.74511719-1.74511718 1.74511719C40.7819519 19.49023438 40 18.70825195 40 17.74511718 40 16.78198243 40.7819519 16 41.74511719 16zM38 53H22c-.5519104 0-1 .44805908-1 1 0 .55194092.4480896 1 1 1h16c.5519104 0 1-.44805908 1-1 0-.55194092-.4480896-1-1-1z"/>
</svg>
