<?xml version="1.0" standalone="no"?>
<!DOCTYPE svg PUBLIC "-//W3C//DTD SVG 1.1//EN" "http://www.w3.org/Graphics/SVG/1.1/DTD/svg11.dtd" >
<svg xmlns="http://www.w3.org/2000/svg">
<metadata>Generated by IcoMoon</metadata>
<defs>
<font id="icomoon" horiz-adv-x="1024">
<font-face units-per-em="1024" ascent="960" descent="-64" />
<missing-glyph horiz-adv-x="1024" />
<glyph unicode="&#x20;" horiz-adv-x="512" d="" />
<glyph unicode="&#xe900;" glyph-name="link_FILL0_wght400_GRAD0_opsz48" d="M480 234.667h-181.333q-90.667 0-152 61.333t-61.333 152 61.333 152 152 61.333h181.333v-64h-181.333q-64 0-106.667-42.667t-42.667-106.667 42.667-106.667 106.667-42.667h181.333zM346.667 416v64h330.667v-64zM544 234.667v64h181.333q64 0 106.667 42.667t42.667 106.667-42.667 106.667-106.667 42.667h-181.333v64h181.333q90.667 0 152-61.333t61.333-152-61.333-152-152-61.333z" />
<glyph unicode="&#xe901;" glyph-name="notifications_FILL0_wght400_GRAD0_opsz48" d="M170.667 149.333v64h89.6v326.4q0 89.6 52.8 159.467t139.2 88v30.933q0 24.533 17.6 40.533t42.133 16 42.133-16 17.6-40.533v-30.933q86.4-18.133 139.733-88t53.333-159.467v-326.4h88.533v-64zM512 464q0 0 0 0t0 0 0 0 0 0zM512 21.333q-34.133 0-59.733 25.067t-25.6 60.267h170.667q0-35.2-25.067-60.267t-60.267-25.067zM324.267 213.333h376.533v326.4q0 78.933-54.4 134.4t-133.333 55.467-133.867-55.467-54.933-134.4z" />
<glyph unicode="&#xe902;" glyph-name="date_range_FILL0_wght400_GRAD0_opsz48" d="M326.4 356.267q-18.133 0-30.4 12.267t-12.267 30.4 12.267 30.4 30.4 12.267 30.4-12.267 12.267-30.4-12.267-30.4-30.4-12.267zM515.2 356.267q-18.133 0-30.4 12.267t-12.267 30.4 12.267 30.4 30.4 12.267 30.4-12.267 12.267-30.4-12.267-30.4-30.4-12.267zM696.533 356.267q-18.133 0-30.4 12.267t-12.267 30.4 12.267 30.4 30.4 12.267 30.4-12.267 12.267-30.4-12.267-30.4-30.4-12.267zM192 21.333q-25.6 0-44.8 19.2t-19.2 44.8v661.333q0 25.6 19.2 44.8t44.8 19.2h69.333v64h69.333v-64h362.667v64h69.333v-64h69.333q25.6 0 44.8-19.2t19.2-44.8v-661.333q0-25.6-19.2-44.8t-44.8-19.2zM192 85.333h640q0 0 0 0t0 0v458.667h-640v-458.667q0 0 0 0t0 0zM192 608h640v138.667q0 0 0 0t0 0h-640q0 0 0 0t0 0zM192 608v138.667q0 0 0 0t0 0 0 0 0 0v-138.667z" />
<glyph unicode="&#xe903;" glyph-name="calendar_today_FILL0_wght400_GRAD0_opsz48" d="M192 21.333q-25.6 0-44.8 19.2t-19.2 44.8v661.333q0 25.6 19.2 44.8t44.8 19.2h69.333v64h69.333v-64h362.667v64h69.333v-64h69.333q25.6 0 44.8-19.2t19.2-44.8v-661.333q0-25.6-19.2-44.8t-44.8-19.2zM192 85.333h640q0 0 0 0t0 0v458.667h-640v-458.667q0 0 0 0t0 0zM192 608h640v138.667q0 0 0 0t0 0h-640q0 0 0 0t0 0zM192 608v138.667q0 0 0 0t0 0 0 0 0 0v-138.667z" />
<glyph unicode="&#xe904;" glyph-name="event_FILL0_wght400_GRAD0_opsz48" d="M636.8 170.667q-43.733 0-73.6 29.867t-29.867 73.6 29.867 73.6 73.6 29.867 73.6-29.867 29.867-73.6-29.867-73.6-73.6-29.867zM192 21.333q-25.6 0-44.8 19.2t-19.2 44.8v661.333q0 25.6 19.2 44.8t44.8 19.2h69.333v64h69.333v-64h362.667v64h69.333v-64h69.333q25.6 0 44.8-19.2t19.2-44.8v-661.333q0-25.6-19.2-44.8t-44.8-19.2zM192 85.333h640q0 0 0 0t0 0v458.667h-640v-458.667q0 0 0 0t0 0zM192 608h640v138.667q0 0 0 0t0 0h-640q0 0 0 0t0 0zM192 608v138.667q0 0 0 0t0 0 0 0 0 0v-138.667z" />
<glyph unicode="&#xe905;" glyph-name="schedule_FILL0_wght400_GRAD0_opsz48" d="M668.8 242.133l48 48-169.6 170.667v214.4h-64v-240zM512 21.333q-87.467 0-165.333 33.6t-136 91.733-91.733 136-33.6 165.333 33.6 165.333 91.733 136 136 91.733 165.333 33.6 165.333-33.6 136-91.733 91.733-136 33.6-165.333-33.6-165.333-91.733-136-136-91.733-165.333-33.6zM512 448q0 0 0 0t0 0 0 0 0 0 0 0 0 0 0 0 0 0zM512 85.333q149.333 0 256 106.667t106.667 256-106.667 256-256 106.667-256-106.667-106.667-256 106.667-256 256-106.667z" />
<glyph unicode="&#xe906;" glyph-name="info_FILL0_wght400_GRAD0_opsz48" d="M483.2 234.667h64v256h-64zM512 569.6q14.933 0 25.067 9.6t10.133 24.533-10.133 25.6-25.067 10.667-25.067-10.667-10.133-25.6 10.133-24.533 25.067-9.6zM512 21.333q-90.667 0-168.533 32.533t-135.467 90.133-90.133 135.467-32.533 168.533q0 89.6 32.533 167.467t90.133 135.467 135.467 90.667 168.533 33.067q89.6 0 167.467-33.067t135.467-90.667 90.667-135.467 33.067-167.467q0-90.667-33.067-168.533t-90.667-135.467-135.467-90.133-167.467-32.533zM512 448q0 0 0 0t0 0 0 0 0 0 0 0 0 0 0 0 0 0zM512 85.333q149.333 0 256 106.667t106.667 256-106.667 256-256 106.667-256-106.667-106.667-256 106.667-256 256-106.667z" />
<glyph unicode="&#xe907;" glyph-name="account_circle_FILL0_wght400_GRAD0_opsz48" d="M236.8 208q67.2 46.933 133.333 72t141.867 25.067 142.4-25.067 133.867-72q46.933 57.6 66.667 116.267t19.733 123.733q0 154.667-104 258.667t-258.667 104-258.667-104-104-258.667q0-65.067 20.267-123.733t67.2-116.267zM512 416q-61.867 0-104 42.133t-42.133 104 42.133 104 104 42.133 104-42.133 42.133-104-42.133-104-104-42.133zM512 21.333q-87.467 0-165.333 33.6t-136 91.733-91.733 136-33.6 165.333q0 88.533 33.6 165.867t91.733 135.467 136 91.733 165.333 33.6q88.533 0 165.867-33.6t135.467-91.733 91.733-135.467 33.6-165.867q0-87.467-33.6-165.333t-91.733-136-135.467-91.733-165.867-33.6zM512 85.333q58.667 0 114.667 17.067t110.4 59.733q-54.4 38.4-110.933 58.667t-114.133 20.267-114.133-20.267-110.933-58.667q54.4-42.667 110.4-59.733t114.667-17.067zM512 480q36.267 0 59.2 22.933t22.933 59.2-22.933 59.2-59.2 22.933-59.2-22.933-22.933-59.2 22.933-59.2 59.2-22.933zM512 562.133q0 0 0 0t0 0 0 0 0 0 0 0 0 0 0 0 0 0zM512 163.2q0 0 0 0t0 0 0 0 0 0 0 0 0 0 0 0 0 0z" />
<glyph unicode="&#xe908;" glyph-name="help_FILL0_wght400_GRAD0_opsz48" d="M516.267 199.467q17.067 0 28.8 11.733t11.733 28.8-11.733 28.8-28.8 11.733-28.8-11.733-11.733-28.8 11.733-28.8 28.8-11.733zM478.933 355.2h62.933q0 27.733 6.933 50.667t43.2 52.8q33.067 27.733 46.933 54.4t13.867 58.667q0 56.533-36.8 90.667t-97.6 34.133q-52.267 0-92.267-26.133t-58.133-72l56.533-21.333q11.733 29.867 35.2 46.4t55.467 16.533q36.267 0 58.667-19.733t22.4-50.667q0-23.467-13.867-44.267t-40.533-43.2q-32-27.733-47.467-54.933t-15.467-72zM512 21.333q-89.6 0-167.467 32.533t-135.467 90.133-90.667 135.467-33.067 168.533q0 89.6 33.067 167.467t90.667 135.467 135.467 90.667 167.467 33.067q88.533 0 166.4-33.067t135.467-90.667 91.2-135.467 33.6-167.467q0-90.667-33.6-168.533t-91.2-135.467-135.467-90.133-166.4-32.533zM512 459.733q0 0 0 0t0 0 0 0 0 0 0 0 0 0 0 0 0 0zM512 85.333q150.4 0 256.533 106.667t106.133 256-106.133 256-256.533 106.667q-152.533 0-257.6-106.667t-105.067-256 105.067-256 257.6-106.667z" />
<glyph unicode="&#xe909;" glyph-name="manage_accounts_FILL0_wght400_GRAD0_opsz48" d="M426.667 453.333q-70.4 0-115.2 44.8t-44.8 115.2 44.8 115.2 115.2 44.8 115.2-44.8 44.8-115.2-44.8-115.2-115.2-44.8zM85.333 110.933v100.267q0 37.333 18.667 67.2t53.867 45.867q76.8 34.133 142.4 49.067t126.4 14.933q5.333 0 12.267 0t12.267 0q-6.4-14.933-9.6-29.333t-5.333-34.667h-9.6q-61.867 0-121.067-13.333t-122.133-44.267q-17.067-8.533-25.6-24t-8.533-31.467v-36.267h286.933q5.333-19.2 12.8-34.667t18.133-29.333zM711.467 64l-10.667 70.4q-18.133 5.333-36.8 15.467t-31.467 22.933l-58.667-12.8-26.667 44.8 50.133 46.933q-2.133 9.6-2.133 26.667t2.133 26.667l-50.133 46.933 26.667 44.8 58.667-12.8q12.8 12.8 31.467 22.933t36.8 15.467l10.667 70.4h57.6l10.667-70.4q18.133-5.333 36.8-15.467t31.467-22.933l58.667 12.8 26.667-44.8-50.133-46.933q2.133-9.6 2.133-26.667t-2.133-26.667l50.133-46.933-26.667-44.8-58.667 12.8q-12.8-12.8-31.467-22.933t-36.8-15.467l-10.667-70.4zM740.267 193.067q38.4 0 61.867 23.467t23.467 61.867-23.467 61.867-61.867 23.467-61.867-23.467-23.467-61.867 23.467-61.867 61.867-23.467zM426.667 517.333q41.6 0 68.8 27.2t27.2 68.8-27.2 68.8-68.8 27.2-68.8-27.2-27.2-68.8 27.2-68.8 68.8-27.2zM426.667 613.333q0 0 0 0t0 0 0 0 0 0 0 0 0 0 0 0 0 0zM436.267 174.933q0 0 0 0t0 0 0 0 0 0 0 0 0 0z" />
<glyph unicode="&#xe90a;" glyph-name="lock_FILL0_wght400_GRAD0_opsz48" d="M512 917.333q84.267 0 143.467-59.2t59.2-143.467v-102.4h74.667q26.667 0 45.333-18.667t18.667-45.333v-462.933q0-26.667-18.667-45.333t-45.333-18.667h-554.667q-26.667 0-45.333 18.667t-18.667 45.333v462.933q0 26.667 18.667 45.333t45.333 18.667h74.667v102.4q0 84.267 59.2 143.467t143.467 59.2zM512 853.333q-57.6 0-98.133-40.533t-40.533-98.133v-102.4h277.333v102.4q0 57.6-40.533 98.133t-98.133 40.533zM234.667 85.333h554.667q0 0 0 0t0 0v462.933q0 0 0 0t0 0h-554.667q0 0 0 0t0 0v-462.933q0 0 0 0t0 0zM512 398.933q-34.133 0-58.133-26.133t-24-58.133q0-33.067 24-56.533t58.133-23.467 58.133 23.467 24 56.533q0 32-24 58.133t-58.133 26.133zM234.667 548.267q0 0 0 0t0 0v-462.933q0 0 0 0t0 0 0 0 0 0v462.933q0 0 0 0t0 0z" />
<glyph unicode="&#xe90b;" glyph-name="calendar_month_FILL0_wght400_GRAD0_opsz48" d="M512 362.667q-18.133 0-30.4 12.267t-12.267 30.4 12.267 30.4 30.4 12.267 30.4-12.267 12.267-30.4-12.267-30.4-30.4-12.267zM341.333 362.667q-18.133 0-30.4 12.267t-12.267 30.4 12.267 30.4 30.4 12.267 30.4-12.267 12.267-30.4-12.267-30.4-30.4-12.267zM682.667 362.667q-18.133 0-30.4 12.267t-12.267 30.4 12.267 30.4 30.4 12.267 30.4-12.267 12.267-30.4-12.267-30.4-30.4-12.267zM512 192q-18.133 0-30.4 12.267t-12.267 30.4 12.267 30.4 30.4 12.267 30.4-12.267 12.267-30.4-12.267-30.4-30.4-12.267zM341.333 192q-18.133 0-30.4 12.267t-12.267 30.4 12.267 30.4 30.4 12.267 30.4-12.267 12.267-30.4-12.267-30.4-30.4-12.267zM682.667 192q-18.133 0-30.4 12.267t-12.267 30.4 12.267 30.4 30.4 12.267 30.4-12.267 12.267-30.4-12.267-30.4-30.4-12.267zM192 21.333q-25.6 0-44.8 19.2t-19.2 44.8v661.333q0 25.6 19.2 44.8t44.8 19.2h69.333v64h69.333v-64h362.667v64h69.333v-64h69.333q25.6 0 44.8-19.2t19.2-44.8v-661.333q0-25.6-19.2-44.8t-44.8-19.2zM192 85.333h640q0 0 0 0t0 0v458.667h-640v-458.667q0 0 0 0t0 0zM192 608h640v138.667q0 0 0 0t0 0h-640q0 0 0 0t0 0zM192 608v138.667q0 0 0 0t0 0 0 0 0 0v-138.667z" />
<glyph unicode="&#xe90c;" glyph-name="assistant_navigation_FILL0_wght400_GRAD0_opsz48" d="M512 676.267l-174.933-423.467 5.333-5.333 169.6 76.8 169.6-76.8 5.333 5.333zM512 21.333q-90.667 0-168.533 32.533t-135.467 90.133-90.133 135.467-32.533 168.533q0 89.6 32.533 167.467t90.133 135.467 135.467 90.667 168.533 33.067q89.6 0 167.467-33.067t135.467-90.667 90.667-135.467 33.067-167.467q0-90.667-33.067-168.533t-90.667-135.467-135.467-90.133-167.467-32.533zM512 448q0 0 0 0t0 0 0 0 0 0 0 0 0 0 0 0 0 0zM512 810.667q-154.667 0-258.667-104t-104-258.667 104-258.667 258.667-104 258.667 104 104 258.667-104 258.667-258.667 104z" />
<glyph unicode="&#xe90d;" glyph-name="sort_by_alpha_FILL0_wght400_GRAD0_opsz48" d="M85.333 234.667l172.8 426.667h67.2l171.733-426.667h-67.2l-40.533 105.6h-196.267l-40.533-105.6zM214.4 395.733h153.6l-74.667 197.333h-4.267zM584.533 234.667v66.133l248.533 305.067h-229.333v55.467h290.133v-67.2l-246.4-304h248.533v-55.467zM409.6 772.267l102.4 102.4 102.4-102.4zM512 21.333l-102.4 102.4h204.8z" />
<glyph unicode="&#xe90e;" glyph-name="keyboard_voice_FILL0_wght400_GRAD0_opsz48" d="M512 387.2q-45.867 0-76.8 33.067t-30.933 80v267.733q0 44.8 31.467 75.733t76.267 30.933 76.267-30.933 31.467-75.733v-267.733q0-46.933-30.933-80t-76.8-33.067zM512 630.4q0 0 0 0t0 0 0 0 0 0 0 0 0 0 0 0 0 0zM480 64v145.067q-113.067 11.733-189.867 94.933t-76.8 196.267h64q0-97.067 68.8-163.2t165.867-66.133 165.867 66.133 68.8 163.2h64q0-113.067-76.8-196.267t-189.867-94.933v-145.067zM512 451.2q19.2 0 31.467 14.4t12.267 34.667v267.733q0 18.133-12.8 30.4t-30.933 12.267-30.933-12.267-12.8-30.4v-267.733q0-20.267 12.267-34.667t31.467-14.4z" />
<glyph unicode="&#xe90f;" glyph-name="switch_access_shortcut_FILL0_wght400_GRAD0_opsz48" d="M341.333 502.4l-37.333 78.933-78.933 37.333 78.933 37.333 37.333 78.933 37.333-78.933 78.933-37.333-78.933-37.333zM341.333 75.733l-37.333 78.933-78.933 37.333 78.933 37.333 37.333 78.933 37.333-78.933 78.933-37.333-78.933-37.333zM205.867 327.467l-24.533 53.333-53.333 24.533 53.333 24.533 24.533 53.333 24.533-53.333 53.333-24.533-53.333-24.533zM810.667 21.333q-129.067 53.333-208.533 173.333t-79.467 253.333q0 97.067 46.4 193.067t126.4 169.6h-179.2v64h294.4v-294.4h-64v190.933q-73.6-66.133-116.8-153.067t-43.2-170.133q0-107.733 61.867-206.933t162.133-149.333z" />
<glyph unicode="&#xe910;" glyph-name="publish_FILL0_wght400_GRAD0_opsz48" d="M480 106.667v395.733l-128-128-45.867 45.867 205.867 205.867 205.867-205.867-45.867-45.867-128 128v-395.733zM170.667 572.8v152.533q0 25.6 19.2 44.8t44.8 19.2h554.667q25.6 0 44.8-19.2t19.2-44.8v-152.533h-64v152.533q0 0 0 0t0 0h-554.667q0 0 0 0t0 0v-152.533z" />
<glyph unicode="&#xe911;" glyph-name="close_fullscreen_FILL0_wght400_GRAD0_opsz48" d="M512 448v320h64v-211.2l317.867 317.867 44.8-44.8-317.867-317.867h211.2v-64zM130.133 21.333l-44.8 44.8 317.867 317.867h-211.2v64h320v-320h-64v211.2z" />
<glyph unicode="&#xe912;" glyph-name="terminal_FILL0_wght400_GRAD0_opsz48" d="M149.333 106.667q-25.6 0-44.8 19.2t-19.2 44.8v554.667q0 25.6 19.2 44.8t44.8 19.2h725.333q25.6 0 44.8-19.2t19.2-44.8v-554.667q0-25.6-19.2-44.8t-44.8-19.2zM149.333 170.667h725.333q0 0 0 0t0 0v465.067h-725.333v-465.067q0 0 0 0t0 0zM522.667 243.2v64h234.667v-64zM320 247.467l-44.8 44.8 109.867 110.933-110.933 110.933 45.867 44.8 155.733-155.733z" />
<glyph unicode="&#xe913;" glyph-name="library_add_FILL0_wght400_GRAD0_opsz48" d="M544 339.2h64v140.8h140.8v64h-140.8v140.8h-64v-140.8h-140.8v-64h140.8zM277.333 149.333q-25.6 0-44.8 19.2t-19.2 44.8v597.333q0 25.6 19.2 44.8t44.8 19.2h597.333q25.6 0 44.8-19.2t19.2-44.8v-597.333q0-25.6-19.2-44.8t-44.8-19.2zM277.333 213.333h597.333q0 0 0 0t0 0v597.333q0 0 0 0t0 0h-597.333q0 0 0 0t0 0v-597.333q0 0 0 0t0 0zM277.333 810.667q0 0 0 0t0 0v-597.333q0 0 0 0t0 0 0 0 0 0v597.333q0 0 0 0t0 0zM149.333 21.333q-25.6 0-44.8 19.2t-19.2 44.8v661.333h64v-661.333q0 0 0 0t0 0h661.333v-64z" />
<glyph unicode="&#xe914;" glyph-name="backspace_FILL0_wght400_GRAD0_opsz48" d="M477.867 283.733l119.467 119.467 119.467-119.467 45.867 45.867-120.533 118.4 118.4 118.4-45.867 45.867-117.333-119.467-119.467 119.467-45.867-45.867 120.533-118.4-120.533-118.4zM128 448l180.267 254.933q13.867 19.2 33.067 31.467t42.667 12.267h448q26.667 0 45.333-18.667t18.667-45.333v-469.333q0-26.667-18.667-45.333t-45.333-18.667h-448q-23.467 0-42.667 12.267t-33.067 31.467zM208 448l164.267-234.667q0 0 0 0t0 0h459.733q0 0 0 0t0 0v469.333q0 0 0 0t0 0h-459.733q0 0 0 0t0 0zM832 448v234.667q0 0 0 0t0 0 0 0 0 0v-469.333q0 0 0 0t0 0 0 0 0 0z" />
<glyph unicode="&#xe915;" glyph-name="key_FILL0_wght400_GRAD0_opsz48" d="M298.667 375.467q-29.867 0-51.2 21.333t-21.333 51.2 21.333 51.2 51.2 21.333 51.2-21.333 21.333-51.2-21.333-51.2-51.2-21.333zM298.667 192q-106.667 0-181.333 74.667t-74.667 181.333 74.667 181.333 181.333 74.667q76.8 0 134.4-36.267t90.667-109.867h379.733l120.533-120.533-178.133-163.2-93.867 68.267-93.867-68.267-80 64h-54.4q-26.667-64-83.733-105.067t-141.333-41.067zM298.667 256q61.867 0 114.133 41.067t67.2 105.067h121.6l57.6-48 93.867 67.2 87.467-66.133 90.667 84.267-54.4 54.4h-396.8q-12.8 59.733-64 102.933t-117.333 43.2q-80 0-136-56t-56-136 56-136 136-56z" />
<glyph unicode="&#xe916;" glyph-name="reply_FILL0_wght400_GRAD0_opsz48" d="M832 149.333v185.6q0 57.6-40.533 98.133t-98.133 40.533h-443.733l164.267-164.267-44.8-44.8-241.067 241.067 241.067 241.067 44.8-44.8-164.267-164.267h443.733q83.2 0 142.933-59.2t59.733-143.467v-185.6z" />
<glyph unicode="&#xe917;" glyph-name="manage_search_FILL0_wght400_GRAD0_opsz48" d="M85.333 597.333v64h213.333v-64zM85.333 373.333v64h213.333v-64zM893.867 149.333l-170.667 170.667q-27.733-21.333-59.733-32t-66.133-10.667q-88.533 0-150.933 62.4t-62.4 150.933 62.4 150.933 150.933 62.4 150.933-62.4 62.4-150.933q0-34.133-10.667-66.133t-32-59.733l170.667-170.667zM597.333 341.333q61.867 0 105.6 43.733t43.733 105.6-43.733 105.6-105.6 43.733-105.6-43.733-43.733-105.6 43.733-105.6 105.6-43.733zM85.333 149.333v64h426.667v-64z" />
<glyph unicode="&#xe918;" glyph-name="open_in_full_FILL0_wght400_GRAD0_opsz48" d="M128 64v320h64v-211.2l595.2 595.2h-211.2v64h320v-320h-64v211.2l-595.2-595.2h211.2v-64z" />
<glyph unicode="&#xe919;" glyph-name="add_box_FILL0_wght400_GRAD0_opsz48" d="M480 234.667h64v181.333h181.333v64h-181.333v181.333h-64v-181.333h-181.333v-64h181.333zM192 64q-25.6 0-44.8 19.2t-19.2 44.8v640q0 25.6 19.2 44.8t44.8 19.2h640q25.6 0 44.8-19.2t19.2-44.8v-640q0-25.6-19.2-44.8t-44.8-19.2zM192 128h640q0 0 0 0t0 0v640q0 0 0 0t0 0h-640q0 0 0 0t0 0v-640q0 0 0 0t0 0zM192 128q0 0 0 0t0 0v640q0 0 0 0t0 0 0 0 0 0v-640q0 0 0 0t0 0z" />
<glyph unicode="&#xe91a;" glyph-name="sync_FILL0_wght400_GRAD0_opsz48" d="M603.733 789.333h245.333v-64h-139.733l16-14.933q64-59.733 96-128t32-131.2q0-113.067-66.133-203.733t-174.933-124.8v67.2q81.067 30.933 129.067 102.933t48 158.4q0 51.2-25.067 104t-65.6 93.333l-30.933 27.733v-132.267h-64zM423.467 106.667h-245.333v64h138.667l-16 12.8q-68.267 54.4-99.2 118.4t-30.933 142.933q0 113.067 66.667 203.2t175.467 124.267v-66.133q-80-30.933-129.067-102.933t-49.067-158.4q0-67.2 25.067-116.8t67.733-85.867l32-22.4v132.267h64z" />
<glyph unicode="&#xe91b;" glyph-name="done_all_FILL0_wght400_GRAD0_opsz48" d="M313.6 194.133l-238.933 238.933 45.867 45.867 238.933-238.933zM494.933 194.133l-238.933 238.933 45.867 45.867 193.067-193.067 409.6 409.6 45.867-45.867zM494.933 375.467l-45.867 45.867 274.133 274.133 45.867-45.867z" />
<glyph unicode="&#xe91c;" glyph-name="sort_FILL0_wght400_GRAD0_opsz48" d="M128 192v64h256v-64zM128 640v64h768v-64zM128 416v64h512v-64z" />
<glyph unicode="&#xe91d;" glyph-name="filter_list_FILL0_wght400_GRAD0_opsz48" d="M426.667 192v64h170.667v-64zM128 640v64h768v-64zM256 416v64h512v-64z" />
<glyph unicode="&#xe91e;" glyph-name="bolt_FILL0_wght400_GRAD0_opsz48" d="M425.6 64l43.733 300.8h-155.733q-11.733 0-17.067 10.667t0 20.267l261.333 436.267h43.733l-43.733-299.733h153.6q11.733 0 17.6-10.667t0.533-20.267l-260.267-437.333z" />
<glyph unicode="&#xe91f;" glyph-name="file_upload_FILL0_wght400_GRAD0_opsz48" d="M480 269.867v395.733l-128-128-45.867 45.867 205.867 205.867 205.867-205.867-45.867-45.867-128 128v-395.733zM234.667 106.667q-25.6 0-44.8 19.2t-19.2 44.8v152.533h64v-152.533q0 0 0 0t0 0h554.667q0 0 0 0t0 0v152.533h64v-152.533q0-25.6-19.2-44.8t-44.8-19.2z" />
<glyph unicode="&#xe920;" glyph-name="radio_button_checked_FILL0_wght400_GRAD0_opsz48" d="M512 249.6q83.2 0 140.8 57.6t57.6 140.8-57.6 140.8-140.8 57.6-140.8-57.6-57.6-140.8 57.6-140.8 140.8-57.6zM512 21.333q-87.467 0-165.333 33.6t-136 91.733-91.733 136-33.6 165.333 33.6 165.333 91.733 136 136 91.733 165.333 33.6 165.333-33.6 136-91.733 91.733-136 33.6-165.333-33.6-165.333-91.733-136-136-91.733-165.333-33.6zM512 448q0 0 0 0t0 0 0 0 0 0 0 0 0 0 0 0 0 0zM512 85.333q149.333 0 256 106.667t106.667 256-106.667 256-256 106.667-256-106.667-106.667-256 106.667-256 256-106.667z" />
<glyph unicode="&#xe921;" glyph-name="apps_FILL0_wght400_GRAD0_opsz48" d="M241.067 648.533q-29.867 0-50.133 20.267t-20.267 50.133 20.267 50.133 50.133 20.267 50.133-20.267 20.267-50.133-20.267-50.133-50.133-20.267zM512 106.667q-29.867 0-50.133 20.267t-20.267 50.133 20.267 50.133 50.133 20.267 50.133-20.267 20.267-50.133-20.267-50.133-50.133-20.267zM241.067 106.667q-29.867 0-50.133 20.267t-20.267 50.133 20.267 50.133 50.133 20.267 50.133-20.267 20.267-50.133-20.267-50.133-50.133-20.267zM241.067 377.6q-29.867 0-50.133 20.267t-20.267 50.133 20.267 50.133 50.133 20.267 50.133-20.267 20.267-50.133-20.267-50.133-50.133-20.267zM512 377.6q-29.867 0-50.133 20.267t-20.267 50.133 20.267 50.133 50.133 20.267 50.133-20.267 20.267-50.133-20.267-50.133-50.133-20.267zM782.933 648.533q-29.867 0-50.133 20.267t-20.267 50.133 20.267 50.133 50.133 20.267 50.133-20.267 20.267-50.133-20.267-50.133-50.133-20.267zM512 648.533q-29.867 0-50.133 20.267t-20.267 50.133 20.267 50.133 50.133 20.267 50.133-20.267 20.267-50.133-20.267-50.133-50.133-20.267zM782.933 377.6q-29.867 0-50.133 20.267t-20.267 50.133 20.267 50.133 50.133 20.267 50.133-20.267 20.267-50.133-20.267-50.133-50.133-20.267zM782.933 106.667q-29.867 0-50.133 20.267t-20.267 50.133 20.267 50.133 50.133 20.267 50.133-20.267 20.267-50.133-20.267-50.133-50.133-20.267z" />
<glyph unicode="&#xe922;" glyph-name="delete_forever_FILL0_wght400_GRAD0_opsz48" d="M421.333 248.533l90.667 90.667 90.667-90.667 44.8 44.8-90.667 90.667 90.667 90.667-44.8 44.8-90.667-90.667-90.667 90.667-44.8-44.8 90.667-90.667-90.667-90.667zM320 128h384q0 0 0 0t0 0v512h-384v-512q0 0 0 0t0 0zM224 725.333v64h142.933l42.667 42.667h204.8l42.667-42.667h142.933v-64zM320 64q-25.6 0-44.8 19.2t-19.2 44.8v576h512v-576q0-25.6-19.2-44.8t-44.8-19.2zM320 128h384q0 0 0 0t0 0h-384q0 0 0 0t0 0z" />
<glyph unicode="&#xe923;" glyph-name="radio_button_unchecked_FILL0_wght400_GRAD0_opsz48" d="M512 21.333q-87.467 0-165.333 33.6t-136 91.733-91.733 136-33.6 166.4q0 87.467 33.6 165.333t91.733 135.467 136 91.2 166.4 33.6q87.467 0 165.333-33.6t135.467-91.2 91.2-135.467 33.6-166.4q0-87.467-33.6-165.333t-91.2-136-135.467-91.733-166.4-33.6zM512 448q0 0 0 0t0 0 0 0 0 0 0 0 0 0 0 0 0 0zM512 85.333q151.467 0 257.067 106.133t105.6 256.533q0 151.467-105.6 257.067t-257.067 105.6q-150.4 0-256.533-105.6t-106.133-257.067q0-150.4 106.133-256.533t256.533-106.133z" />
<glyph unicode="&#xe924;" glyph-name="more_horiz_FILL0_wght400_GRAD0_opsz48" d="M221.867 396.8q-21.333 0-36.267 14.933t-14.933 36.267 14.933 36.267 36.267 14.933 36.267-14.933 14.933-36.267-14.933-36.267-36.267-14.933zM512 396.8q-21.333 0-36.267 14.933t-14.933 36.267 14.933 36.267 36.267 14.933 36.267-14.933 14.933-36.267-14.933-36.267-36.267-14.933zM802.133 396.8q-21.333 0-36.267 14.933t-14.933 36.267 14.933 36.267 36.267 14.933 36.267-14.933 14.933-36.267-14.933-36.267-36.267-14.933z" />
<glyph unicode="&#xe925;" glyph-name="expand_less_FILL0_wght400_GRAD0_opsz48" d="M301.867 304l-45.867 45.867 256 256 256-254.933-45.867-45.867-210.133 210.133z" />
<glyph unicode="&#xe926;" glyph-name="check_box_outline_blank_FILL0_wght400_GRAD0_opsz48" d="M192 64q-25.6 0-44.8 19.2t-19.2 44.8v640q0 25.6 19.2 44.8t44.8 19.2h640q25.6 0 44.8-19.2t19.2-44.8v-640q0-25.6-19.2-44.8t-44.8-19.2zM192 128h640q0 0 0 0t0 0v640q0 0 0 0t0 0h-640q0 0 0 0t0 0v-640q0 0 0 0t0 0z" />
<glyph unicode="&#xe927;" glyph-name="more_vert_FILL0_wght400_GRAD0_opsz48" d="M512 106.667q-21.333 0-36.267 14.933t-14.933 36.267 14.933 36.267 36.267 14.933 36.267-14.933 14.933-36.267-14.933-36.267-36.267-14.933zM512 396.8q-21.333 0-36.267 14.933t-14.933 36.267 14.933 36.267 36.267 14.933 36.267-14.933 14.933-36.267-14.933-36.267-36.267-14.933zM512 686.933q-21.333 0-36.267 14.933t-14.933 36.267 14.933 36.267 36.267 14.933 36.267-14.933 14.933-36.267-14.933-36.267-36.267-14.933z" />
<glyph unicode="&#xe928;" glyph-name="check_box_FILL0_wght400_GRAD0_opsz48" d="M192 64q-25.6 0-44.8 19.2t-19.2 44.8v640q0 25.6 19.2 44.8t44.8 19.2h640q25.6 0 44.8-19.2t19.2-44.8v-640q0-25.6-19.2-44.8t-44.8-19.2zM192 128h640q0 0 0 0t0 0v640q0 0 0 0t0 0h-640q0 0 0 0t0 0v-640q0 0 0 0t0 0zM446.933 278.4l308.267 308.267-45.867 45.867-262.4-262.4-126.933 126.933-45.867-45.867zM192 128q0 0 0 0t0 0v640q0 0 0 0t0 0 0 0 0 0v-640q0 0 0 0t0 0z" />
<glyph unicode="&#xe929;" glyph-name="open_in_new_FILL0_wght400_GRAD0_opsz48" d="M896 425.6v-297.6q0-25.6-19.2-44.8t-44.8-19.2h-640q-25.6 0-44.8 19.2t-19.2 44.8v640q0 25.6 19.2 44.8t44.8 19.2h297.6v-64h-297.6q0 0 0 0t0 0v-640q0 0 0 0t0 0h640q0 0 0 0t0 0v297.6zM407.467 297.6l-44.8 45.867 424.533 424.533h-233.6v64h342.4v-342.4h-64v232.533z" />
<glyph unicode="&#xe92a;" glyph-name="login_FILL0_wght400_GRAD0_opsz48" d="M438.4 261.333l-45.867 45.867 108.8 108.8h-373.333v64h371.2l-108.8 108.8 45.867 45.867 187.733-187.733zM521.6 64v64h310.4q0 0 0 0t0 0v640q0 0 0 0t0 0h-310.4v64h310.4q25.6 0 44.8-19.2t19.2-44.8v-640q0-25.6-19.2-44.8t-44.8-19.2z" />
<glyph unicode="&#xe92b;" glyph-name="star_FILL0_wght400_GRAD0_opsz48" d="M248.533 21.333l99.2 324.267-262.4 187.733h324.267l102.4 341.333 102.4-341.333h324.267l-262.4-187.733 99.2-324.267-263.467 200.533z" />
<glyph unicode="&#xe92c;" glyph-name="arrow_forward_ios_FILL0_wght400_GRAD0_opsz48" d="M324.267 23.467l-59.733 60.8 365.867 365.867-365.867 365.867 59.733 60.8 426.667-426.667z" />
<glyph unicode="&#xe92d;" glyph-name="add_circle_FILL0_wght400_GRAD0_opsz48" d="M483.2 234.667h64v177.067h178.133v64h-178.133v185.6h-64v-185.6h-184.533v-64h184.533zM512 21.333q-90.667 0-168.533 32.533t-135.467 90.133-90.133 135.467-32.533 168.533q0 89.6 32.533 167.467t90.133 135.467 135.467 90.667 168.533 33.067q89.6 0 167.467-33.067t135.467-90.667 90.667-135.467 33.067-167.467q0-90.667-33.067-168.533t-90.667-135.467-135.467-90.133-167.467-32.533zM512 448q0 0 0 0t0 0 0 0 0 0 0 0 0 0 0 0 0 0zM512 85.333q149.333 0 256 106.667t106.667 256-106.667 256-256 106.667-256-106.667-106.667-256 106.667-256 256-106.667z" />
<glyph unicode="&#xe92e;" glyph-name="arrow_back_ios_FILL0_wght400_GRAD0_opsz48" d="M426.667 21.333l-426.667 426.667 426.667 426.667 59.733-60.8-365.867-365.867 365.867-365.867z" />
<glyph unicode="&#xe92f;" glyph-name="cancel_FILL0_wght400_GRAD0_opsz48" d="M352 243.2l160 160 160-160 44.8 44.8-160 160 160 160-44.8 44.8-160-160-160 160-44.8-44.8 160-160-160-160zM512 21.333q-90.667 0-168.533 32.533t-135.467 90.133-90.133 135.467-32.533 168.533q0 89.6 32.533 167.467t90.133 135.467 135.467 90.667 168.533 33.067q89.6 0 167.467-33.067t135.467-90.667 90.667-135.467 33.067-167.467q0-90.667-33.067-168.533t-90.667-135.467-135.467-90.133-167.467-32.533zM512 448q0 0 0 0t0 0 0 0 0 0 0 0 0 0 0 0 0 0zM512 85.333q149.333 0 256 106.667t106.667 256-106.667 256-256 106.667-256-106.667-106.667-256 106.667-256 256-106.667z" />
<glyph unicode="&#xe930;" glyph-name="file_download_FILL0_wght400_GRAD0_opsz48" d="M512 269.867l-205.867 205.867 45.867 45.867 128-128v395.733h64v-395.733l128 128 45.867-45.867zM234.667 106.667q-25.6 0-44.8 19.2t-19.2 44.8v152.533h64v-152.533q0 0 0 0t0 0h554.667q0 0 0 0t0 0v152.533h64v-152.533q0-25.6-19.2-44.8t-44.8-19.2z" />
<glyph unicode="&#xe931;" glyph-name="arrow_forward_FILL0_wght400_GRAD0_opsz48" d="M512 106.667l-44.8 45.867 263.467 263.467h-560v64h560l-263.467 263.467 44.8 45.867 341.333-341.333z" />
<glyph unicode="&#xe932;" glyph-name="check_circle_FILL0_wght400_GRAD0_opsz48" d="M449.067 253.867l301.867 301.867-49.067 48-252.8-252.8-128 128-48-48zM512 21.333q-90.667 0-168.533 32.533t-135.467 90.133-90.133 135.467-32.533 168.533q0 89.6 32.533 167.467t90.133 135.467 135.467 90.667 168.533 33.067q89.6 0 167.467-33.067t135.467-90.667 90.667-135.467 33.067-167.467q0-90.667-33.067-168.533t-90.667-135.467-135.467-90.133-167.467-32.533zM512 448q0 0 0 0t0 0 0 0 0 0 0 0 0 0 0 0 0 0zM512 85.333q154.667 0 258.667 104t104 258.667-104 258.667-258.667 104-258.667-104-104-258.667 104-258.667 258.667-104z" />
<glyph unicode="&#xe933;" glyph-name="favorite_FILL0_wght400_GRAD0_opsz48" d="M512 65.067l-43.733 39.467q-173.867 158.933-278.4 277.333t-104.533 240q0 96 64.533 160.533t159.467 64.533q54.4 0 107.733-26.133t94.933-85.867q46.933 59.733 97.067 85.867t105.6 26.133q94.933 0 159.467-64.533t64.533-160.533q0-121.6-104.533-240t-278.4-277.333zM512 466.133q0 0 0 0t0 0 0 0 0 0 0 0 0 0 0 0 0 0 0 0 0 0 0 0 0 0zM512 149.333q162.133 149.333 262.4 259.2t100.267 213.333q0 70.4-45.333 115.733t-114.667 45.333q-53.333 0-100.267-33.067t-76.8-94.933h-52.267q-28.8 61.867-76.267 94.933t-99.733 33.067q-70.4 0-115.2-45.333t-44.8-115.733q0-103.467 100.267-213.333t262.4-259.2z" />
<glyph unicode="&#xe934;" glyph-name="add_FILL0_wght400_GRAD0_opsz48" d="M480 149.333v266.667h-266.667v64h266.667v266.667h64v-266.667h266.667v-64h-266.667v-266.667z" />
<glyph unicode="&#xe935;" glyph-name="delete_FILL0_wght400_GRAD0_opsz48" d="M278.4 64q-25.6 0-44.8 19.2t-19.2 44.8v608h-43.733v64h200.533v32h281.6v-32h200.533v-64h-43.733v-608q0-25.6-19.2-44.8t-44.8-19.2zM745.6 736h-467.2v-608q0 0 0 0t0 0h467.2q0 0 0 0t0 0zM391.467 219.733h64v425.6h-64zM568.533 219.733h64v425.6h-64zM278.4 736v-608q0 0 0 0t0 0 0 0 0 0z" />
<glyph unicode="&#xe936;" glyph-name="logout_FILL0_wght400_GRAD0_opsz48" d="M400 480h371.2l-108.8 108.8 45.867 45.867 187.733-187.733-185.6-185.6-45.867 45.867 108.8 108.8h-373.333zM502.4 832v-64h-310.4q0 0 0 0t0 0v-640q0 0 0 0t0 0h310.4v-64h-310.4q-25.6 0-44.8 19.2t-19.2 44.8v640q0 25.6 19.2 44.8t44.8 19.2z" />
<glyph unicode="&#xe937;" glyph-name="arrow_back_FILL0_wght400_GRAD0_opsz48" d="M512 106.667l-341.333 341.333 341.333 341.333 44.8-44.8-264.533-264.533h561.067v-64h-561.067l264.533-264.533z" />
<glyph unicode="&#xe938;" glyph-name="chevron_right_FILL0_wght400_GRAD0_opsz48" d="M400 192l-45.867 45.867 211.2 211.2-211.2 211.2 45.867 45.867 257.067-257.067z" />
<glyph unicode="&#xe939;" glyph-name="expand_more_FILL0_wght400_GRAD0_opsz48" d="M512 304l-256 256 45.867 45.867 210.133-211.2 210.133 210.133 45.867-45.867z" />
<glyph unicode="&#xe93a;" glyph-name="done_FILL0_wght400_GRAD0_opsz48" d="M403.2 198.4l-238.933 238.933 45.867 45.867 193.067-193.067 409.6 409.6 45.867-45.867z" />
<glyph unicode="&#xe93b;" glyph-name="settings_FILL0_wght400_GRAD0_opsz48" d="M413.867 21.333l-21.333 134.4q-20.267 7.467-42.667 20.267t-39.467 26.667l-125.867-57.6-99.2 174.933 115.2 84.267q-2.133 9.6-2.667 21.867t-0.533 21.867 0.533 21.867 2.667 21.867l-115.2 84.267 99.2 174.933 125.867-57.6q17.067 13.867 39.467 26.667t42.667 19.2l21.333 135.467h196.267l21.333-134.4q20.267-7.467 43.2-19.733t38.933-27.2l125.867 57.6 99.2-174.933-115.2-82.133q2.133-10.667 2.667-22.933t0.533-22.933-0.533-22.4-2.667-22.4l115.2-83.2-99.2-174.933-125.867 57.6q-17.067-13.867-38.933-27.2t-43.2-19.733l-21.333-134.4zM512 309.333q57.6 0 98.133 40.533t40.533 98.133-40.533 98.133-98.133 40.533-98.133-40.533-40.533-98.133 40.533-98.133 98.133-40.533zM512 373.333q-30.933 0-52.8 21.867t-21.867 52.8 21.867 52.8 52.8 21.867 52.8-21.867 21.867-52.8-21.867-52.8-52.8-21.867zM512 448q0 0 0 0t0 0 0 0 0 0 0 0 0 0 0 0 0 0 0 0 0 0 0 0 0 0 0 0 0 0 0 0 0 0zM465.067 85.333h93.867l14.933 119.467q35.2 8.533 66.667 26.667t57.067 43.733l113.067-49.067 42.667 76.8-100.267 73.6q4.267 18.133 6.933 35.733t2.667 35.733-2.133 35.733-7.467 35.733l100.267 73.6-42.667 76.8-113.067-49.067q-24.533 27.733-55.467 46.4t-68.267 24l-14.933 119.467h-93.867l-14.933-119.467q-36.267-7.467-67.733-25.6t-56-44.8l-113.067 49.067-42.667-76.8 100.267-73.6q-4.267-18.133-6.933-35.733t-2.667-35.733 2.667-35.733 6.933-35.733l-100.267-73.6 42.667-76.8 113.067 49.067q25.6-25.6 57.067-43.733t66.667-26.667z" />
<glyph unicode="&#xe93c;" glyph-name="close_FILL0_wght400_GRAD0_opsz48" d="M265.6 156.8l-44.8 44.8 246.4 246.4-246.4 246.4 44.8 44.8 246.4-246.4 246.4 246.4 44.8-44.8-246.4-246.4 246.4-246.4-44.8-44.8-246.4 246.4z" />
<glyph unicode="&#xe93d;" glyph-name="menu_FILL0_wght400_GRAD0_opsz48" d="M128 192v64h768v-64zM128 416v64h768v-64zM128 640v64h768v-64z" />
<glyph unicode="&#xe93e;" glyph-name="home_FILL0_wght400_GRAD0_opsz48" d="M170.667 64v512l343.467 256 339.2-256v-512h-249.6v304h-184.533v-304zM234.667 128h120.533v304h312.533v-304h121.6v416l-275.2 208-279.467-208z" />
<glyph unicode="&#xe93f;" glyph-name="search_FILL0_wght400_GRAD0_opsz48" d="M849.067 65.067l-280.533 280.533q-32-27.733-74.667-43.2t-90.667-15.467q-115.2 0-195.2 80t-80 193.067 80 193.067 194.133 80q113.067 0 192.533-80t79.467-193.067q0-45.867-14.933-88.533t-44.8-80l281.6-279.467zM402.133 350.933q86.4 0 147.2 61.333t60.8 147.733-60.8 147.733-147.2 61.333q-87.467 0-148.8-61.333t-61.333-147.733 61.333-147.733 148.8-61.333z" />
<glyph unicode="&#xe940;" glyph-name="folder_FILL0_wght400_GRAD0_opsz48" d="M150.4 106.667q-25.6 0-44.8 19.733t-19.2 44.267v554.667q0 24.533 19.2 44.267t44.8 19.733h298.667l64-64h362.667q24.533 0 44.267-19.733t19.733-44.267v-490.667q0-24.533-19.733-44.267t-44.267-19.733zM150.4 725.333v-554.667q0 0 0 0t0 0h725.333q0 0 0 0t0 0v490.667q0 0 0 0t0 0h-389.333l-64 64h-272q0 0 0 0t0 0zM150.4 725.333q0 0 0 0t0 0v-64q0 0 0 0t0 0v-490.667q0 0 0 0t0 0 0 0 0 0z" />
<glyph unicode="&#xe941;" glyph-name="mongodb" d="M733.013 553.899c-53.888 237.227-180.992 315.179-194.645 345.003-15.019 21.035-31.275 61.099-31.275 61.099-0.085-0.811-0.171-1.323-0.213-2.091v-0.555h-0.043c-0.085-0.64-0.128-1.067-0.171-1.664v-0.64h-0.085c0-0.427-0.085-0.768-0.085-1.109v-1.109h-0.128c-0.043-0.341-0.043-0.768-0.128-1.067v-0.896h-0.085c0-0.299 0-0.64-0.085-0.896v-0.853h-0.085c0-0.427-0.043-0.939-0.085-1.365v-0.085c-0.128-0.725-0.256-1.451-0.384-2.133v-0.341h-0.085c-0.043-0.171-0.128-0.341-0.128-0.512v-0.725h-0.128v-0.939h-0.213v-0.768h-0.213v-0.896h-0.171v-0.811h-0.171v-0.725h-0.256v-0.597h-0.171v-0.768h-0.171v-0.597h-0.213v-0.555h-0.128v-0.64h-0.171c-0.043-0.043-0.043-0.128-0.043-0.171v-0.427h-0.128c-0.043-0.085-0.043-0.171-0.043-0.256v-0.256h-0.085c-0.043-0.128-0.085-0.341-0.085-0.427-0.128-0.299-0.299-0.597-0.427-0.896v-0.085c-0.085-0.085-0.171-0.213-0.213-0.299v-0.341h-0.171v-0.341h-0.213v-0.341h-0.128v-0.427h-0.256v-0.597h-0.171v-0.171h-0.171v-0.341h-0.171v-0.469h-0.171v-0.341h-0.256v-0.469h-0.171v-0.341h-0.213v-0.341h-0.128v-0.427h-0.213v-0.341h-0.171v-0.256h-0.171v-0.341h-0.256v-0.384h-0.171v-0.256h-0.213v-0.341h-0.171v-0.469h-0.213v-0.171h-0.128v-0.341h-0.256v-0.171h-0.171v-0.427h-0.171v-0.171h-0.171v-0.341h-0.213v-0.256h-0.128l-0.085-0.171v-0.171h-0.085c-0.043-0.085-0.085-0.085-0.085-0.171v-0.043h-0.043c-0.043-0.128-0.085-0.213-0.171-0.299v-0.128h-0.043c-0.213-0.256-0.341-0.512-0.512-0.768v-0.043c-0.085-0.085-0.299-0.256-0.384-0.427v-0.085h-0.043c-0.043-0.043-0.128-0.085-0.128-0.128v-0.128h-0.085l-0.128-0.128v-0.043h-0.043c0-0.043-0.085-0.085-0.128-0.171v-0.171h-0.128l-0.085-0.085v-0.085h-0.085c0-0.085-0.085-0.085-0.085-0.128v-0.128h-0.171c0-0.043-0.043-0.085-0.085-0.128v-0.256h-0.128v-0.171h-0.171v-0.256h-0.171v-0.341h-0.213v0.341h-0.213v-0.171h-0.171v-0.256h-0.213v-0.341h-0.213v-0.171h-0.171v-0.256h-0.171v-0.171h-0.171v-0.341h-0.256v-0.171h-0.171v-0.256h-0.213v-0.171h-0.171v-0.213h-0.213v-0.427h-0.085v-0.171h-0.256v-0.213h-0.171v-0.085h-0.171v-0.171h-0.213v-0.427h-0.171v-0.171h-0.213v-0.171h-0.171v-0.256h-0.213v-0.171h-0.213v-0.171h-0.171v-0.171h-0.171v-0.427h-0.171v-0.213h-0.256v-0.171h-0.171v-0.171h-0.213v-0.256h-0.171v-0.171h-0.213v-0.299h-0.171v-0.171h-0.256v-0.256h-0.085v-0.171h-0.171v-0.171h-0.213v-0.171h-0.171v-0.256h-0.213v-0.171h-0.128c-0.043-0.043-0.043-0.085-0.043-0.085v-0.085h-0.085l-0.171-0.171c0 0-0.085-0.085-0.171-0.128v-0.256h-0.171v-0.213h-0.171v-0.171h-0.171v-0.171h-0.128l-0.128-0.128v-0.128h-0.085l-0.085-0.085v-0.128h-0.085c-0.213-0.256-0.299-0.427-0.597-0.683-0.085-0.085-0.341-0.299-0.512-0.427-0.512-0.341-1.152-0.896-1.664-1.365-0.341-0.213-0.683-0.512-0.939-0.725v-0.043h-0.043c-0.683-0.555-1.323-1.067-2.091-1.664v-0.043c-1.024-0.853-2.005-1.664-3.157-2.645v0.043h-0.085c-2.432-2.005-4.992-4.267-7.936-6.784v-0.043h-0.043c-7.211-6.315-15.787-14.421-25.387-24.235l-0.811-0.811c-58.027-60.032-149.461-185.131-159.104-387.285-0.853-16.725-0.683-32.981 0.256-48.811v-0.384c4.651-79.659 29.653-147.669 60.928-202.923v-0.043c12.459-22.016 25.899-42.027 39.509-59.947v-0.043c47.019-62.080 95.019-98.859 107.264-107.776 18.816-43.648 17.067-118.571 17.067-118.571l27.477-9.173c0 0-5.589 72.576 2.261 107.605 2.432 10.965 8.192 20.309 14.891 28.245 4.523 3.2 17.92 12.843 34.005 27.52 0.768 0.811 1.195 1.536 1.877 2.304 64.896 60.501 186.112 209.493 144.555 452.224z" />
<glyph unicode="&#xe942;" glyph-name="nodejs" d="M511.915-64c-13.696 0-27.349 3.584-39.339 10.539l-125.269 74.112c-18.688 10.453-9.557 14.165-3.413 16.341 24.96 8.661 29.995 10.667 56.661 25.771 2.773 1.579 6.443 0.981 9.301-0.725l96.256-57.131c3.499-1.92 8.405-1.92 11.605 0l375.253 216.576c3.499 2.005 5.717 6.016 5.717 10.155v433.067c0 4.224-2.261 8.192-5.845 10.325l-375.083 216.405c-3.456 2.005-8.064 2.005-11.563 0l-374.997-216.448c-3.627-2.091-5.931-6.187-5.931-10.283v-433.067c0-4.139 2.304-8.064 5.931-10.027l102.784-59.392c55.765-27.904 89.941 4.949 89.941 37.973v427.563c0 6.059 4.864 10.795 10.923 10.795h47.573c5.931 0 10.88-4.779 10.88-10.795v-427.563c0-74.453-40.533-117.12-111.104-117.12-21.675 0-38.784 0-86.443 23.509l-98.475 56.619c-24.32 14.037-39.339 40.32-39.339 68.437v433.067c0 28.117 15.061 54.4 39.339 68.395l375.253 216.832c23.765 13.44 55.296 13.44 78.848 0l375.211-216.832c24.32-14.037 39.424-40.277 39.424-68.395v-433.067c0-28.117-15.104-54.315-39.424-68.437l-375.211-216.661c-11.947-6.955-25.557-10.539-39.467-10.539zM814.891 362.965c0 81.067-54.784 102.656-170.112 117.888-116.523 15.403-128.384 23.381-128.384 50.645 0 22.528 10.027 52.608 96.341 52.608 77.099 0 105.515-16.597 117.205-68.565 1.024-4.907 5.504-8.491 10.539-8.491h48.683c3.029 0 5.888 1.323 7.936 3.456 2.048 2.304 3.157 5.248 2.859 8.363-7.552 89.515-67.029 131.243-187.221 131.243-107.008 0-170.837-45.141-170.837-120.875 0-82.133 63.488-104.832 166.187-114.987 122.88-12.032 132.395-29.995 132.395-54.144 0-41.941-33.664-59.819-112.725-59.819-99.285 0-121.131 24.917-128.469 74.325-0.853 5.291-5.376 9.173-10.795 9.173h-48.512c-6.016 0-10.837-4.779-10.837-10.795 0-63.232 34.389-138.581 198.613-138.581 118.955-0.043 187.136 46.763 187.136 128.555z" />
<glyph unicode="&#xe943;" glyph-name="angular" d="M423.68 420.48h176.384l-88.235 209.28zM511.829 959.616l-482.56-169.771 73.6-629.76 408.96-223.701 409.088 223.488 73.557 629.888zM812.971 178.944h-112.469l-60.587 149.376h-256.128l-60.587-149.376h-112.555l301.227 667.648z" />
<glyph unicode="&#xe944;" glyph-name="bootstrap" d="M853.333 960h-682.667c-94.165-0.256-170.411-76.501-170.667-170.667v-682.667c0-93.867 76.8-170.667 170.667-170.667h682.667c93.867 0 170.667 76.8 170.667 170.667v682.667c0 93.867-76.8 170.667-170.667 170.667zM760.021 240.853c-8.533-20.565-22.059-38.699-39.381-52.651-17.92-14.507-40.619-26.453-68.565-34.987-27.904-8.661-61.099-13.013-99.541-13.013h-274.432v597.333h290.219c53.675 0 96.683-12.075 128.853-36.693 32.427-24.747 48.555-61.611 48.555-111.36 0-30.080-7.339-55.893-22.101-77.227-14.677-21.205-35.84-37.803-63.147-49.323v-1.963c36.437-7.68 64.64-24.96 83.2-51.84s28.075-60.843 28.075-101.845c0-22.955-4.437-44.8-12.8-65.195zM641.579 388.053c-17.493 16-42.069 23.808-73.813 23.808h-184.405v-186.368h184.917c31.573 0 56.32 8.192 73.813 24.747 17.493 16.427 26.453 39.851 26.453 69.973-0.299 29.44-8.96 52.224-26.453 67.84zM615.979 508.501c16.896 14.336 25.173 34.859 25.173 61.611 0 30.037-7.467 51.371-22.613 63.573-15.019 12.16-36.693 18.475-65.195 18.475h-170.667v-164.821h170.667c24.875 0 46.080 7.253 62.635 21.163z" />
<glyph unicode="&#xe945;" glyph-name="add" d="M810.667 405.333h-256v-256h-85.333v256h-256v85.333h256v256h85.333v-256h256v-85.333z" />
<glyph unicode="&#xe946;" glyph-name="addFull" d="M512 874.667c-235.52 0-426.667-191.147-426.667-426.667s191.147-426.667 426.667-426.667c235.52 0 426.667 191.147 426.667 426.667s-191.147 426.667-426.667 426.667zM725.333 405.333h-170.667v-170.667h-85.333v170.667h-170.667v85.333h170.667v170.667h85.333v-170.667h170.667v-85.333z" />
<glyph unicode="&#xe947;" glyph-name="addEmpty" d="M554.667 661.333h-85.333v-170.667h-170.667v-85.333h170.667v-170.667h85.333v170.667h170.667v85.333h-170.667v170.667zM512 874.667c-235.52 0-426.667-191.147-426.667-426.667s191.147-426.667 426.667-426.667c235.52 0 426.667 191.147 426.667 426.667s-191.147 426.667-426.667 426.667zM512 106.667c-188.16 0-341.333 153.173-341.333 341.333s153.173 341.333 341.333 341.333c188.16 0 341.333-153.173 341.333-341.333s-153.173-341.333-341.333-341.333z" />
<glyph unicode="&#xe948;" glyph-name="arrowBack" d="M853.333 490.667h-519.253l238.507 238.507-60.587 60.16-341.333-341.333 341.333-341.333 60.16 60.16-238.080 238.507h519.253v85.333z" />
<glyph unicode="&#xe949;" glyph-name="dropdown" d="M316.16 593.493l195.84-195.413 195.84 195.413 60.16-60.16-256-256-256 256 60.16 60.16z" />
<glyph unicode="&#xe94a;" glyph-name="calendar" d="M853.333 832h-42.667v85.333h-85.333v-85.333h-426.667v85.333h-85.333v-85.333h-42.667c-46.933 0-85.333-38.4-85.333-85.333v-682.667c0-46.933 38.4-85.333 85.333-85.333h682.667c46.933 0 85.333 38.4 85.333 85.333v682.667c0 46.933-38.4 85.333-85.333 85.333zM853.333 64h-682.667v554.667h682.667v-554.667z" />
<glyph unicode="&#xe94b;" glyph-name="car" d="M807.253 703.573c-8.533 25.173-32.427 43.093-60.587 43.093h-469.333c-28.16 0-51.627-17.92-60.587-43.093l-88.747-255.573v-341.333c0-23.467 19.2-42.667 42.667-42.667h42.667c23.467 0 42.667 19.2 42.667 42.667v42.667h512v-42.667c0-23.467 19.2-42.667 42.667-42.667h42.667c23.467 0 42.667 19.2 42.667 42.667v341.333l-88.747 255.573zM277.333 277.333c-35.413 0-64 28.587-64 64s28.587 64 64 64c35.413 0 64-28.587 64-64s-28.587-64-64-64zM746.667 277.333c-35.413 0-64 28.587-64 64s28.587 64 64 64c35.413 0 64-28.587 64-64s-28.587-64-64-64zM213.333 490.667l64 192h469.333l64-192h-597.333z" />
<glyph unicode="&#xe94c;" glyph-name="check" d="M384 270.080l-177.92 177.92-60.587-60.16 238.507-238.507 512 512-60.16 60.16-451.84-451.413z" />
<glyph unicode="&#xe94d;" glyph-name="close" d="M810.667 686.507l-60.16 60.16-238.507-238.507-238.507 238.507-60.16-60.16 238.507-238.507-238.507-238.507 60.16-60.16 238.507 238.507 238.507-238.507 60.16 60.16-238.507 238.507 238.507 238.507z" />
<glyph unicode="&#xe94e;" glyph-name="card" d="M853.333 789.333h-682.667c-47.36 0-84.907-37.973-84.907-85.333l-0.427-512c0-47.36 37.973-85.333 85.333-85.333h682.667c47.36 0 85.333 37.973 85.333 85.333v512c0 47.36-37.973 85.333-85.333 85.333zM853.333 192h-682.667v256h682.667v-256zM853.333 618.667h-682.667v85.333h682.667v-85.333z" />
<glyph unicode="&#xe94f;" glyph-name="delete" d="M256 149.333c0-46.933 38.4-85.333 85.333-85.333h341.333c46.933 0 85.333 38.4 85.333 85.333v512h-512v-512zM810.667 789.333h-149.333l-42.667 42.667h-213.333l-42.667-42.667h-149.333v-85.333h597.333v85.333z" />
<glyph unicode="&#xe950;" glyph-name="document" d="M256 874.667c-46.933 0-84.907-38.4-84.907-85.333l-0.427-682.667c0-46.933 37.973-85.333 84.907-85.333h512.427c46.933 0 85.333 38.4 85.333 85.333v512l-256 256h-341.333zM554.667 576v234.667l234.667-234.667h-234.667z" />
<glyph unicode="&#xe951;" glyph-name="downlaod" d="M810.667 106.667v85.333h-597.333v-85.333h597.333zM810.667 533.333h-170.667v256h-256v-256h-170.667l298.667-298.667 298.667 298.667z" />
<glyph unicode="&#xe952;" glyph-name="edit" d="M128 224v-160h160l471.893 471.893-160 160-471.893-471.893zM883.627 659.627c16.64 16.64 16.64 43.52 0 60.16l-99.84 99.84c-16.64 16.64-43.52 16.64-60.16 0l-78.080-78.080 160-160 78.080 78.080z" />
<glyph unicode="&#xe953;" glyph-name="error" d="M801.408 100.565h-463.019c-64.256 0-115.925 51.883-115.925 115.925v123.648l-115.797 115.797 115.797 115.84v107.733c0 64.256 51.925 115.925 115.925 115.925h463.019c64.256 0 115.925-51.883 115.925-115.925v-463.019c0-64.256-51.883-115.925-115.925-115.925zM732.032 577.493l-32.64 32.64-129.493-129.493-129.451 129.493-32.683-32.64 129.493-129.493-129.493-129.493 32.683-32.64 129.451 129.493 129.493-129.493 32.64 32.64-129.451 129.493 129.451 129.493z" />
<glyph unicode="&#xe954;" glyph-name="flash" d="M298.667 874.667v-469.333h128v-384l298.667 512h-170.667l170.667 341.333h-426.667z" />
<glyph unicode="&#xe955;" glyph-name="help" d="M512 874.667c-235.52 0-426.667-191.147-426.667-426.667s191.147-426.667 426.667-426.667c235.52 0 426.667 191.147 426.667 426.667s-191.147 426.667-426.667 426.667zM554.667 149.333h-85.333v85.333h85.333v-85.333zM642.987 480l-38.4-39.253c-30.72-31.147-49.92-56.747-49.92-120.747h-85.333v21.333c0 46.933 19.2 89.6 49.92 120.747l52.907 53.76c15.787 15.36 25.173 36.693 25.173 60.16 0 46.933-38.4 85.333-85.333 85.333s-85.333-38.4-85.333-85.333h-85.333c0 94.293 76.373 170.667 170.667 170.667s170.667-76.373 170.667-170.667c0-37.547-15.36-71.68-39.68-96z" />
<glyph unicode="&#xe956;" glyph-name="locationOff" d="M893.44 490.667c-19.627 177.92-160.853 319.147-338.773 338.773v87.893h-85.333v-87.893c-48.213-5.12-93.44-19.627-134.827-41.387l64-64c34.987 14.507 73.387 22.613 113.493 22.613 165.12 0 298.667-133.547 298.667-298.667 0-40.107-8.107-78.507-22.187-113.067l64-64c21.333 40.96 35.84 86.187 41.387 134.4h87.467v85.333h-87.893zM128 777.813l87.040-87.040c-45.653-55.893-76.373-124.587-84.48-200.107h-87.893v-85.333h87.893c19.627-177.92 160.853-319.147 338.773-338.773v-87.893h85.333v87.893c75.52 8.533 144.213 38.827 200.107 84.48l87.040-87.040 54.187 54.187-713.813 713.813-54.187-54.187zM694.187 211.627c-50.347-38.827-113.493-62.293-182.187-62.293-165.12 0-298.667 133.547-298.667 298.667 0 68.693 23.467 131.84 62.293 182.187l418.56-418.56z" />
<glyph unicode="&#xe957;" glyph-name="locationOn" d="M893.44 490.667c-19.627 177.92-160.853 319.147-338.773 338.773v87.893h-85.333v-87.893c-177.92-19.627-319.147-160.853-338.773-338.773h-87.893v-85.333h87.893c19.627-177.92 160.853-319.147 338.773-338.773v-87.893h85.333v87.893c177.92 19.627 319.147 160.853 338.773 338.773h87.893v85.333h-87.893zM512 149.333c-165.12 0-298.667 133.547-298.667 298.667s133.547 298.667 298.667 298.667c165.12 0 298.667-133.547 298.667-298.667s-133.547-298.667-298.667-298.667z" />
<glyph unicode="&#xe958;" glyph-name="lockFull" d="M768 618.667h-42.667v85.333c0 117.76-95.573 213.333-213.333 213.333s-213.333-95.573-213.333-213.333v-85.333h-42.667c-46.933 0-85.333-38.4-85.333-85.333v-426.667c0-46.933 38.4-85.333 85.333-85.333h512c46.933 0 85.333 38.4 85.333 85.333v426.667c0 46.933-38.4 85.333-85.333 85.333zM512 234.667c-46.933 0-85.333 38.4-85.333 85.333s38.4 85.333 85.333 85.333c46.933 0 85.333-38.4 85.333-85.333s-38.4-85.333-85.333-85.333zM644.267 618.667h-264.533v85.333c0 72.96 59.307 132.267 132.267 132.267s132.267-59.307 132.267-132.267v-85.333z" />
<glyph unicode="&#xe959;" glyph-name="lockEmpty" d="M644.267 618.667v85.333c0 72.96-59.307 132.267-132.267 132.267-72.661 0-131.797-58.837-132.267-131.413v-86.187h264.533zM768 106.667v426.667h-512v-426.667h512zM512 234.667c46.933 0 85.333 38.4 85.333 85.333s-38.4 85.333-85.333 85.333c-46.933 0-85.333-38.4-85.333-85.333s38.4-85.333 85.333-85.333zM256 618.667h42.667v85.333c0 117.76 95.573 213.333 213.333 213.333s213.333-95.573 213.333-213.333v-85.333h42.667c46.933 0 85.333-38.4 85.333-85.333v-426.667c0-46.933-38.4-85.333-85.333-85.333h-512c-46.933 0-85.333 38.4-85.333 85.333v426.667c0 46.933 38.4 85.333 85.333 85.333z" />
<glyph unicode="&#xe95a;" glyph-name="mail" d="M853.333 789.333h-682.667c-46.933 0-84.907-38.4-84.907-85.333l-0.427-512c0-46.933 38.4-85.333 85.333-85.333h682.667c46.933 0 85.333 38.4 85.333 85.333v512c0 46.933-38.4 85.333-85.333 85.333zM853.333 192h-682.667v426.667l341.333-213.333 341.333 213.333v-426.667zM512 490.667l-341.333 213.333h682.667l-341.333-213.333z" />
<glyph unicode="&#xe95b;" glyph-name="menu" d="M128 192h768v85.333h-768v-85.333zM128 405.333h768v85.333h-768v-85.333zM128 704v-85.333h768v85.333h-768z" />
<glyph unicode="&#xe95c;" glyph-name="dollar" d="M503.467 494.933c-96.853 25.173-128 51.2-128 91.733 0 46.507 43.093 78.933 115.2 78.933 75.947 0 104.107-36.267 106.667-89.6h94.293c-2.987 73.387-47.787 140.8-136.96 162.56v93.44h-128v-92.16c-82.773-17.92-149.333-71.68-149.333-154.027 0-98.56 81.493-147.627 200.533-176.213 106.667-25.6 128-63.147 128-102.827 0-29.44-20.907-76.373-115.2-76.373-87.893 0-122.453 39.253-127.147 89.6h-93.867c5.12-93.44 75.093-145.92 157.013-163.413v-92.587h128v91.733c83.2 15.787 149.333 64 149.333 151.467 0 121.173-103.68 162.56-200.533 187.733z" />
<glyph unicode="&#xe95d;" glyph-name="notifFull" d="M512 21.333c46.933 0 85.333 38.4 85.333 85.333h-170.667c0-46.933 37.973-85.333 85.333-85.333zM768 277.333v213.333c0 130.987-69.973 240.64-192 269.653v29.013c0 35.413-28.587 64-64 64s-64-28.587-64-64v-29.013c-122.453-29.013-192-138.24-192-269.653v-213.333l-85.333-85.333v-42.667h682.667v42.667l-85.333 85.333z" />
<glyph unicode="&#xe95e;" glyph-name="notifEmpty" d="M512 21.333c46.933 0 85.333 38.4 85.333 85.333h-170.667c0-46.933 38.4-85.333 85.333-85.333zM768 277.333v213.333c0 130.987-69.547 240.64-192 269.653v29.013c0 35.413-28.587 64-64 64s-64-28.587-64-64v-29.013c-122.027-29.013-192-138.24-192-269.653v-213.333l-85.333-85.333v-42.667h682.667v42.667l-85.333 85.333zM682.667 234.667h-341.333v256c0 105.813 64.427 192 170.667 192s170.667-86.187 170.667-192v-256z" />
<glyph unicode="&#xe95f;" glyph-name="ongoing" d="M512 704v-128l170.667 170.667-170.667 170.667v-128c-188.587 0-341.333-152.747-341.333-341.333 0-66.987 19.627-129.28 52.907-181.76l62.293 62.293c-19.2 35.413-29.867 76.373-29.867 119.467 0 141.227 114.773 256 256 256zM800.427 629.76l-62.293-62.293c18.773-35.84 29.867-76.373 29.867-119.467 0-141.227-114.773-256-256-256v128l-170.667-170.667 170.667-170.667v128c188.587 0 341.333 152.747 341.333 341.333 0 66.987-19.627 129.28-52.907 181.76v0z" />
<glyph unicode="&#xe960;" glyph-name="people" d="M682.667 490.667c70.827 0 127.573 57.173 127.573 128s-56.747 128-127.573 128c-70.827 0-128-57.173-128-128s57.173-128 128-128zM341.333 490.667c70.827 0 127.573 57.173 127.573 128s-56.747 128-127.573 128c-70.827 0-128-57.173-128-128s57.173-128 128-128zM341.333 405.333c-99.413 0-298.667-49.92-298.667-149.333v-106.667h597.333v106.667c0 99.413-199.253 149.333-298.667 149.333zM682.667 405.333c-12.373 0-26.453-0.853-41.387-2.133 49.493-35.84 84.053-84.053 84.053-147.2v-106.667h256v106.667c0 99.413-199.253 149.333-298.667 149.333z" />
<glyph unicode="&#xe961;" glyph-name="person" d="M512 448c94.293 0 170.667 76.373 170.667 170.667s-76.373 170.667-170.667 170.667c-94.293 0-170.667-76.373-170.667-170.667s76.373-170.667 170.667-170.667zM512 362.667c-113.92 0-341.333-57.173-341.333-170.667v-85.333h682.667v85.333c0 113.493-227.413 170.667-341.333 170.667z" />
<glyph unicode="&#xe962;" glyph-name="tel" d="M629.717 80.128c17.536-0.128 34.901 3.499 50.944 10.624 5.632 2.517 11.051 5.504 16.213 8.917l43.52 33.024c15.915 11.947 21.333 33.365 12.928 51.413l-53.632 116.437c-10.453 22.656-32.725 34.133-50.773 26.027l-59.904-26.88c-31.957-14.421-78.464 16.043-101.675 66.347l-49.536 107.52c-14.379 28.117-17.323 60.587-8.277 90.795 4.053 12.203 12.8 22.315 24.32 28.075 0.213 0.128 20.181 9.088 59.861 26.923 7.595 3.541 13.44 9.941 16.213 17.792 4.139 12.288 3.2 25.728-2.56 37.376l-53.675 116.437c-8.277 18.048-27.947 28.032-47.488 24.064l-52.693-10.411c-7.083-1.835-12.928-3.925-18.56-6.485-33.963-16.683-59.691-46.379-71.339-82.261-33.365-88.747-16.469-225.493 44.075-356.864 77.611-168.491 201.259-278.869 302.037-278.869z" />
<glyph unicode="&#xe963;" glyph-name="plan" d="M843.52 651.52l0.427 0.427-158.72 158.72-45.227-45.227 90.027-90.027c-40.107-15.36-68.693-53.76-68.693-99.413 0-58.88 47.787-106.667 106.667-106.667 15.36 0 29.44 3.413 42.667 8.96v-307.627c0-23.467-19.2-42.667-42.667-42.667s-42.667 19.2-42.667 42.667v192c0 46.933-38.4 85.333-85.333 85.333h-42.667v298.667c0 46.933-38.4 85.333-85.333 85.333h-256c-46.933 0-85.333-38.4-85.333-85.333v-682.667h426.667v320h64v-213.333c0-58.88 47.787-106.667 106.667-106.667s106.667 47.787 106.667 106.667v405.333c0 29.44-11.947 56.32-31.147 75.52zM768 533.333c-23.467 0-42.667 19.2-42.667 42.667s19.2 42.667 42.667 42.667c23.467 0 42.667-19.2 42.667-42.667s-19.2-42.667-42.667-42.667zM341.333 192v192h-85.333l170.667 320v-213.333h85.333l-170.667-298.667z" />
<glyph unicode="&#xe964;" glyph-name="receipt" d="M768 234.667h-512v85.333h512v-85.333zM768 405.333h-512v85.333h512v-85.333zM768 576h-512v85.333h512v-85.333zM128 21.333l64 64 64-64 64 64 64-64 64 64 64-64 64 64 64-64 64 64 64-64 64 64 64-64v853.333l-64-64-64 64-64-64-64 64-64-64-64 64-64-64-64 64-64-64-64 64-64-64-64 64v-853.333z" />
<glyph unicode="&#xe965;" glyph-name="search" d="M661.333 362.667h-33.707l-11.947 11.52c41.813 48.64 66.987 111.787 66.987 180.48 0 153.173-124.16 277.333-277.333 277.333s-277.333-124.16-277.333-277.333c0-153.173 124.16-277.333 277.333-277.333 68.693 0 131.84 25.173 180.48 66.987l11.52-11.947v-33.707l213.333-212.907 63.573 63.573-212.907 213.333zM405.333 362.667c-106.24 0-192 85.76-192 192s85.76 192 192 192c106.24 0 192-85.76 192-192s-85.76-192-192-192z" />
<glyph unicode="&#xe966;" glyph-name="camion" d="M853.333 618.667h-128v170.667h-597.333c-46.933 0-85.333-38.4-85.333-85.333v-469.333h85.333c0-70.827 57.173-128 128-128s128 57.173 128 128h256c0-70.827 57.173-128 128-128s128 57.173 128 128h85.333v213.333l-128 170.667zM256 170.667c-35.413 0-64 28.587-64 64s28.587 64 64 64 64-28.587 64-64-28.587-64-64-64zM832 554.667l83.627-106.667h-190.293v106.667h106.667zM768 170.667c-35.413 0-64 28.587-64 64s28.587 64 64 64 64-28.587 64-64-28.587-64-64-64z" />
<glyph unicode="&#xe967;" glyph-name="visibilityOff" d="M512 661.333c117.76 0 213.333-95.573 213.333-213.333 0-27.733-5.547-53.76-15.36-78.080l124.587-124.587c64.427 53.76 115.2 123.307 146.347 202.667-73.813 187.307-256 320-469.333 320-59.733 0-116.907-10.667-169.813-29.867l92.16-92.16c24.32 9.813 50.347 15.36 78.080 15.36zM85.333 777.813l116.907-116.907c-70.827-55.040-126.293-128.427-159.573-212.907 73.813-187.307 256-320 469.333-320 66.133 0 129.28 12.8 186.88 35.84l17.92-17.92 125.013-124.587 54.187 54.187-756.48 756.48-54.187-54.187zM321.28 541.867l66.133-66.133c-2.133-8.96-3.413-18.347-3.413-27.733 0-70.827 57.173-128 128-128 9.387 0 18.773 1.28 27.733 3.413l66.133-66.133c-28.587-14.080-60.16-22.613-93.867-22.613-117.76 0-213.333 95.573-213.333 213.333 0 33.707 8.533 65.28 22.613 93.867v0zM505.173 575.147l134.4-134.4 0.853 6.827c0 70.827-57.173 128-128 128l-7.253-0.427z" />
<glyph unicode="&#xe968;" glyph-name="VisvisibilityOnibility_ON_Icon" d="M512 768c-213.333 0-395.52-132.693-469.333-320 73.813-187.307 256-320 469.333-320s395.52 132.693 469.333 320c-73.813 187.307-256 320-469.333 320zM512 234.667c-117.76 0-213.333 95.573-213.333 213.333s95.573 213.333 213.333 213.333c117.76 0 213.333-95.573 213.333-213.333s-95.573-213.333-213.333-213.333zM512 576c-70.827 0-128-57.173-128-128s57.173-128 128-128c70.827 0 128 57.173 128 128s-57.173 128-128 128z" />
<glyph unicode="&#xe969;" glyph-name="library" horiz-adv-x="1088" d="M1024 0v64h-64v384h64v64h-192v-64h64v-384h-192v384h64v64h-192v-64h64v-384h-192v384h64v64h-192v-64h64v-384h-192v384h64v64h-192v-64h64v-384h-64v-64h-64v-64h1088v64h-64zM512 960h64l512-320v-64h-1088v64l512 320z" />
<glyph unicode="&#xe96a;" glyph-name="hammer" d="M1009.996 131.024l-301.544 301.544c-18.668 18.668-49.214 18.668-67.882 0l-22.626-22.626-184 184 302.056 302.058h-320l-142.058-142.058-14.060 14.058h-67.882v-67.882l14.058-14.058-206.058-206.060 160-160 206.058 206.058 184-184-22.626-22.626c-18.668-18.668-18.668-49.214 0-67.882l301.544-301.544c18.668-18.668 49.214-18.668 67.882 0l113.136 113.136c18.67 18.666 18.67 49.214 0.002 67.882z" />
<glyph unicode="&#xe96b;" glyph-name="euro" d="M480 896c-265.096 0-480-214.904-480-480s214.904-480 480-480c265.098 0 480 214.902 480 480s-214.902 480-480 480zM480 32c-212.078 0-384 171.922-384 384s171.922 384 384 384c212.076 0 384-171.922 384-384s-171.924-384-384-384zM670.824 315.66c-15.27 8.884-34.862 3.708-43.75-11.57-17.256-29.662-49.088-48.090-83.074-48.090h-128c-41.716 0-77.286 26.754-90.496 64h154.496c17.672 0 32 14.326 32 32s-14.328 32-32 32h-160v64h160c17.672 0 32 14.328 32 32s-14.328 32-32 32h-154.496c13.21 37.246 48.78 64 90.496 64h128c33.986 0 65.818-18.426 83.074-48.090 8.888-15.276 28.478-20.456 43.752-11.568 15.276 8.888 20.456 28.476 11.568 43.752-28.672 49.288-81.702 79.906-138.394 79.906h-128c-77.268 0-141.914-55.056-156.78-128h-35.22c-17.672 0-32-14.328-32-32s14.328-32 32-32h32v-64h-32c-17.672 0-32-14.326-32-32s14.328-32 32-32h35.22c14.866-72.944 79.512-128 156.78-128h128c56.692 0 109.72 30.62 138.394 79.91 8.888 15.276 3.708 34.864-11.57 43.75z" />
<glyph unicode="&#xe96c;" glyph-name="shopping" d="M384 32c0-53.019-42.981-96-96-96s-96 42.981-96 96c0 53.019 42.981 96 96 96s96-42.981 96-96zM1024 32c0-53.019-42.981-96-96-96s-96 42.981-96 96c0 53.019 42.981 96 96 96s96-42.981 96-96zM1024 448v384h-768c0 35.346-28.654 64-64 64h-192v-64h128l48.074-412.054c-29.294-23.458-48.074-59.5-48.074-99.946 0-70.696 57.308-128 128-128h768v64h-768c-35.346 0-64 28.654-64 64 0 0.218 0.014 0.436 0.016 0.656l831.984 127.344z" />
<glyph unicode="&#xe96d;" glyph-name="clock" d="M658.744 210.744l-210.744 210.746v282.51h128v-229.49l173.256-173.254zM512 960c-282.77 0-512-229.23-512-512s229.23-512 512-512 512 229.23 512 512-229.23 512-512 512zM512 64c-212.078 0-384 171.922-384 384s171.922 384 384 384c212.078 0 384-171.922 384-384s-171.922-384-384-384z" />
<glyph unicode="&#xe96e;" glyph-name="database" d="M512 960c-282.77 0-512-71.634-512-160v-128c0-88.366 229.23-160 512-160s512 71.634 512 160v128c0 88.366-229.23 160-512 160zM512 416c-282.77 0-512 71.634-512 160v-192c0-88.366 229.23-160 512-160s512 71.634 512 160v192c0-88.366-229.23-160-512-160zM512 128c-282.77 0-512 71.634-512 160v-192c0-88.366 229.23-160 512-160s512 71.634 512 160v192c0-88.366-229.23-160-512-160z" />
<glyph unicode="&#xe9d9;" glyph-name="star" d="M1024 562.95l-353.78 51.408-158.22 320.582-158.216-320.582-353.784-51.408 256-249.538-60.432-352.352 316.432 166.358 316.432-166.358-60.434 352.352 256.002 249.538z" />
<glyph unicode="&#xea82;" glyph-name="terminal" d="M0 896v-896h1024v896h-1024zM960 64h-896v768h896v-768zM896 768h-768v-640h768v640zM448 448h-64v-64h-64v-64h-64v64h64v64h64v64h-64v64h-64v64h64v-64h64v-64h64v-64zM704 320h-192v64h192v-64z" />
<glyph unicode="&#xea91;" glyph-name="facebook1" d="M608 768h160v192h-160c-123.514 0-224-100.486-224-224v-96h-128v-192h128v-512h192v512h160l32 192h-192v96c0 17.346 14.654 32 32 32z" />
<glyph unicode="&#xea94;" glyph-name="whatsapp1" d="M873 811.2c-95.8 96-223.2 148.8-359 148.8-279.6 0-507.2-227.6-507.2-507.4 0-89.4 23.4-176.8 67.8-253.6l-72-263 269 70.6c74.2-40.4 157.6-61.8 242.4-61.8h0.2c0 0 0 0 0 0 279.6 0 507.4 227.6 507.4 507.4 0 135.6-52.8 263-148.6 359zM514.2 30.4v0c-75.8 0-150 20.4-214.8 58.8l-15.4 9.2-159.6-41.8 42.6 155.6-10 16c-42.4 67-64.6 144.6-64.6 224.4 0 232.6 189.2 421.8 422 421.8 112.6 0 218.6-44 298.2-123.6 79.6-79.8 123.4-185.6 123.4-298.4-0.2-232.8-189.4-422-421.8-422zM745.4 346.4c-12.6 6.4-75 37-86.6 41.2s-20 6.4-28.6-6.4c-8.4-12.6-32.8-41.2-40.2-49.8-7.4-8.4-14.8-9.6-27.4-3.2s-53.6 19.8-102 63c-37.6 33.6-63.2 75.2-70.6 87.8s-0.8 19.6 5.6 25.8c5.8 5.6 12.6 14.8 19 22.2s8.4 12.6 12.6 21.2c4.2 8.4 2.2 15.8-1 22.2s-28.6 68.8-39 94.2c-10.2 24.8-20.8 21.4-28.6 21.8-7.4 0.4-15.8 0.4-24.2 0.4s-22.2-3.2-33.8-15.8c-11.6-12.6-44.4-43.4-44.4-105.8s45.4-122.6 51.8-131.2c6.4-8.4 89.4-136.6 216.6-191.4 30.2-13 53.8-20.8 72.2-26.8 30.4-9.6 58-8.2 79.8-5 24.4 3.6 75 30.6 85.6 60.2s10.6 55 7.4 60.2c-3 5.6-11.4 8.8-24.2 15.2z" />
<glyph unicode="&#xea97;" glyph-name="twitter1" d="M1024 733.6c-37.6-16.8-78.2-28-120.6-33 43.4 26 76.6 67.2 92.4 116.2-40.6-24-85.6-41.6-133.4-51-38.4 40.8-93 66.2-153.4 66.2-116 0-210-94-210-210 0-16.4 1.8-32.4 5.4-47.8-174.6 8.8-329.4 92.4-433 219.6-18-31-28.4-67.2-28.4-105.6 0-72.8 37-137.2 93.4-174.8-34.4 1-66.8 10.6-95.2 26.2 0-0.8 0-1.8 0-2.6 0-101.8 72.4-186.8 168.6-206-17.6-4.8-36.2-7.4-55.4-7.4-13.6 0-26.6 1.4-39.6 3.8 26.8-83.4 104.4-144.2 196.2-146-72-56.4-162.4-90-261-90-17 0-33.6 1-50.2 3 93.2-59.8 203.6-94.4 322.2-94.4 386.4 0 597.8 320.2 597.8 597.8 0 9.2-0.2 18.2-0.6 27.2 41 29.4 76.6 66.4 104.8 108.6z" />
<glyph unicode="&#xeab0;" glyph-name="github" d="M512.008 947.358c-282.738 0-512.008-229.218-512.008-511.998 0-226.214 146.704-418.132 350.136-485.836 25.586-4.738 34.992 11.11 34.992 24.632 0 12.204-0.48 52.542-0.696 95.324-142.448-30.976-172.504 60.41-172.504 60.41-23.282 59.176-56.848 74.916-56.848 74.916-46.452 31.778 3.51 31.124 3.51 31.124 51.4-3.61 78.476-52.766 78.476-52.766 45.672-78.27 119.776-55.64 149.004-42.558 4.588 33.086 17.852 55.68 32.506 68.464-113.73 12.942-233.276 56.85-233.276 253.032 0 55.898 20.004 101.574 52.76 137.428-5.316 12.9-22.854 64.972 4.952 135.5 0 0 43.006 13.752 140.84-52.49 40.836 11.348 84.636 17.036 128.154 17.234 43.502-0.198 87.336-5.886 128.256-17.234 97.734 66.244 140.656 52.49 140.656 52.49 27.872-70.528 10.35-122.6 5.036-135.5 32.82-35.856 52.694-81.532 52.694-137.428 0-196.654-119.778-239.95-233.79-252.624 18.364-15.89 34.724-47.046 34.724-94.812 0-68.508-0.596-123.644-0.596-140.508 0-13.628 9.222-29.594 35.172-24.566 203.322 67.776 349.842 259.626 349.842 485.768 0 282.78-229.234 511.998-511.992 511.998z" />
<glyph unicode="&#xeacb;" glyph-name="linkedin21" d="M384 576h177.106v-90.782h2.532c24.64 44.194 84.958 90.782 174.842 90.782 186.946 0 221.52-116.376 221.52-267.734v-308.266h-184.61v273.278c0 65.184-1.334 149.026-96.028 149.026-96.148 0-110.82-70.986-110.82-144.292v-278.012h-184.542v576zM64 576h192v-576h-192v576zM256 736c0-53.019-42.981-96-96-96s-96 42.981-96 96c0 53.019 42.981 96 96 96s96-42.981 96-96z" />
<glyph unicode="&#xeae8;" glyph-name="html" d="M60.538 960l82.144-921.63 368.756-102.37 369.724 102.524 82.3 921.476h-902.924zM810.762 97.176l-297.226-82.376v-0.466l-0.776 0.234-0.782-0.234v0.466l-297.222 82.376-70.242 787.486h736.496l-70.248-787.486zM650.754 429.796l-13.070-146.552-126.21-34.070-125.862 33.916-8.050 90.234h-113.49l15.83-177.512 232.076-64.176 231.342 64.176 31.040 347.012h-411.966l-10.302 115.748h432.534l10.112 113.026h-566.218l30.498-341.802z" />
<glyph unicode="&#xeae9;" glyph-name="css" d="M152.388 911.478l-34.36-171.926h699.748l-21.884-111.054h-700.188l-33.892-171.898h699.684l-39.018-196.064-282.012-93.422-244.4 93.422 16.728 85.042h-171.898l-40.896-206.352 404.226-154.704 466.006 154.704 153.768 772.252z" />
<glyph unicode="&#xeaea;" glyph-name="git1" d="M1004.692 493.606l-447.096 447.080c-25.738 25.754-67.496 25.754-93.268 0l-103.882-103.876 78.17-78.17c12.532 5.996 26.564 9.36 41.384 9.36 53.020 0 96-42.98 96-96 0-14.82-3.364-28.854-9.362-41.386l127.976-127.974c12.532 5.996 26.566 9.36 41.386 9.36 53.020 0 96-42.98 96-96s-42.98-96-96-96-96 42.98-96 96c0 14.82 3.364 28.854 9.362 41.386l-127.976 127.974c-3.042-1.456-6.176-2.742-9.384-3.876v-266.968c37.282-13.182 64-48.718 64-90.516 0-53.020-42.98-96-96-96s-96 42.98-96 96c0 41.796 26.718 77.334 64 90.516v266.968c-37.282 13.18-64 48.72-64 90.516 0 14.82 3.364 28.852 9.36 41.384l-78.17 78.17-295.892-295.876c-25.75-25.776-25.75-67.534 0-93.288l447.12-447.080c25.738-25.75 67.484-25.75 93.268 0l445.006 445.006c25.758 25.762 25.758 67.54-0.002 93.29z" />
</font>
</defs>
</svg>
