<svg xmlns="http://www.w3.org/2000/svg" width="57" height="57" viewBox="0 0 57 57">
  <g>
    <rect width="57" height="57" x="0" y="0" fill="none" rx="0" ry="0"/>
    <path fill="rgb(255,255,255)" fill-rule="evenodd" d="M33.84375 33.83740234V13.64215088c0-2.49298096-2.01367187-4.52215576-4.4888916-4.52215576-2.4753418 0-4.4888916 2.0291748-4.4888916 4.52215576v20.19525146c-2.27331543 1.6447754-3.47631836 4.3729248-3.15441895 7.20379639.40270996 3.5415039 3.24865723 6.397583 6.76599121 6.79101563.2866211.0322876.57336426.04779052.85864258.04779052 1.89501953 0 3.73413086-.69708252 5.14941406-1.97363281 1.6295166-1.46966553 2.56445313-3.5756836 2.56445313-5.77734375 0-2.50787353-1.19213867-4.83355713-3.20629883-6.29162598zm-.2130127 11.10644532c-1.37609863 1.24163818-3.1550293 1.81079101-5.01086425 1.60339355-2.92858887-.32684326-5.2980957-2.70489502-5.63354492-5.65393066-.28015137-2.46069336.82019042-4.82647705 2.87158203-6.175354l.2911377-.1918335v-.8572998h.64135741c.35388184 0 .64123536-.28875733.64123536-.6459961 0-.3572998-.28735352-.64605713-.64123536-.64605713h-.64135742V30.4387207h.64135742c.35388184 0 .64123536-.28875732.64123536-.6459961 0-.3572998-.28735352-.64605712-.64123536-.64605712h-.64135742v-1.93804932h.64135742c.35388184 0 .64123536-.28875732.64123536-.64605712 0-.35723877-.28735352-.6459961-.64123536-.6459961h-.64135742v-1.93804932h.64135742c.35388184 0 .64123536-.28875732.64123536-.64605712 0-.35723877-.28735352-.6459961-.64123536-.6459961h-.64135742V20.7484131h.64135742c.35388184 0 .64123536-.28881836.64123536-.64605713s-.28735352-.6459961-.64123536-.6459961h-.64135742v-1.93804931h.64135742c.35388184 0 .64123536-.28881836.64123536-.64605713s-.28735352-.6459961-.64123536-.6459961h-.64135742v-1.93804931h.64135742c.35388184 0 .64123536-.28881836.64123536-.64605713s-.28735352-.6459961-.64123536-.6459961h-.57714843c.2980957-1.47229003 1.5928955-2.58410644 3.14147949-2.58410644 1.7680664 0 3.2064209 1.44903564 3.2064209 3.23010254v.64605713h-.64135743c-.35388183 0-.64123535.28875732-.64123535.6459961 0 .35723876.28735352.64599609.64123535.64599609h.64135743v1.93811035h-.64135743c-.35388183 0-.64123535.28875732-.64123535.6459961 0 .35723876.28735352.64599608.64123535.64599608h.64135743v1.93811036h-.64135743c-.35388183 0-.64123535.28875732-.64123535.64599609 0 .35723877.28735352.6459961.64123535.6459961h.64135743v1.93811034h-.64135743c-.35388183 0-.64123535.28875733-.64123535.6459961s.28735352.64605713.64123535.64605713h.64135743v1.93804931h-.64135743c-.35388183 0-.64123535.28875733-.64123535.6459961s.28735352.64605713.64123535.64605713h.64135743v1.93804931h-.64135743c-.35388183 0-.64123535.28875733-.64123535.6459961 0 .3572998.28735352.64605713.64123535.64605713h.64135743v2.79663086l.2911377.19122314c1.82568359 1.199646 2.91516112 3.22235107 2.91516112 5.41040039 0 1.83532715-.7791748 3.58996582-2.13671875 4.81481934zm1.70922852-30.9788208c0 1.73138427 1.40356445 3.13500976 3.13500977 3.13500976 1.7314453 0 3.13500976-1.40362549 3.13500976-3.13500976 0-1.73144532-1.40356445-3.13500977-3.13500976-3.13500977-1.73144532 0-3.13500977 1.40356445-3.13500977 3.13500977zm3.13500977 1.99493408c1.10180664 0 1.99499511-.89318848 1.99499511-1.99499512s-.89318847-1.99499512-1.99499511-1.99499512-1.99499512.89318848-1.99499512 1.99499512.89318848 1.99499512 1.99499512 1.99499512zm3.13500976 2.85003662V17.6699829h-6.27001953v1.14001465h6.27001953zm-25.87207031 10.8881836l2.21704101-2.3381958 2.21704102 2.3381958c.59191895.62420654.91796875 1.45410155.91796875 2.3375244 0 .88342286-.3260498 1.71331788-.91796875 2.33752442-.61132812.64471436-1.41381836.96673584-2.21704102.96673584-.80322265 0-1.60571289-.32202148-2.21704101-.96673584-.59191895-.62420654-.91796875-1.45410156-.91796875-2.33752441 0-.88342286.3260498-1.71331787.91796875-2.33752442zm3.54760742 3.74005126c-.73364258.77301026-1.92687988.77368164-2.66040039 0-.35546875-.37426758-.55114746-.87219238-.55114746-1.40246582 0-.53033447.19567871-1.02825928.5505371-1.40252685l1.33044434-1.40319825 1.33056641 1.40319825c.3548584.37426757.55041504.87219238.55041504 1.40252685 0 .53027344-.19555664 1.02819824-.55041504 1.40246582z"/>
    <path fill="rgb(31,142,250)" fill-rule="evenodd" d="M29.982 36.97226625V13.18125c0-.35461125-.280896-.64125-.627-.64125s-.627.28663875-.627.64125v23.79101625c-1.430814.29689875-2.508 1.5903-2.508 3.14148375 0 1.77049125 1.403853 3.20625 3.135 3.20625 1.731147 0 3.135-1.43575875 3.135-3.20625 0-1.55118375-1.077186-2.844585-2.508-3.14148375z"/>
  </g>
</svg>
