<svg xmlns="http://www.w3.org/2000/svg" width="31.896" height="38.291" viewBox="0 0 31.896 38.291">
  <path fill="rgb(68,85,107)" fill-rule="evenodd" d="M31.8959961 15.94799805c0 7.93713379-5.82843018 14.53759765-13.4298401 15.74847412v1.66644287l5.39913941 1.07989502c.57705688.11541748.99603271.6264038.99603271 1.21496582v1.39434814c0 .68328858-.55581665 1.23907471-1.2390747 1.23907471H8.27374268c-.68325806 0-1.23907471-.55578613-1.23907471-1.2390747v-1.39422608c0-.58868408.41903686-1.09967041.99615478-1.21502686l5.39907837-1.07983398v-1.6665039C5.82843018 30.4855957 0 23.8850708 0 15.94799804 0 7.15423584 7.1541748 0 15.94799805 0c8.79382324 0 15.94799804 7.15423584 15.94799804 15.94799805zm-22.94271851 0c0-3.85699463 3.13778686-6.99475098 6.99472046-6.99475098 3.8569641 0 6.99472046 3.13775635 6.99472046 6.99475098 0 3.8569336-3.13775635 6.99468994-6.99472046 6.99468994-3.8569336 0-6.99472046-3.13775635-6.99472046-6.99468994zm6.99472046 5.7956543c-3.19573975 0-5.7956543-2.59991456-5.7956543-5.7956543 0-3.19573975 2.59991455-5.7956543 5.7956543-5.7956543 3.19573974 0 5.7956543 2.59991455 5.7956543 5.7956543 0 3.19573974-2.59991456 5.7956543-5.7956543 5.7956543zm1.0954895-9.17407227c0-.33111572.26849365-.59954834.59957886-.59954834 1.03588867 0 1.87857055.84277344 1.8786621 1.8786621 0 .33117677-.26843261.59954835-.59957885.59954835s-.59957886-.26849365-.59957886-.59954834c0-.37469483-.30484009-.6795044-.6795044-.6795044-.33117675 0-.59957885-.26843261-.59957885-.59960937zm.22354126 20.6854248v-1.41394043c-.43511963.03564453-.87487793.0548706-1.31903076.0548706-.44415284 0-.88391114-.01904296-1.31903076-.0548706v1.41394043h2.63806152z"/>
</svg>
