<svg xmlns="http://www.w3.org/2000/svg" width="57" height="57" viewBox="0 0 57 57">
  <g>
    <rect width="57" height="57" x="0" y="0" fill="none" rx="0" ry="0"/>
    <path fill="rgb(255,255,255)" fill-rule="evenodd" d="M15.42982483 11.17791748v11.32720947h-.5527649c-1.47317504 0-2.67124938 1.20880127-2.67124938 2.69525147v10.9050293c0 4.95428466 3.99482727 8.9837036 8.90501403 8.9837036h2.17427063v3.6380005c0 .35308838.28398133.6395874.63389588.6395874h9.5135498c.34991455 0 .63391114-.28649902.63391114-.6395874v-3.6380005h2.1755371c4.91017151 0 8.9037323-4.03070068 8.9037323-8.9837036v-10.9050293c0-1.4864502-1.19805908-2.69525147-2.6699829-2.69525147h-.5552826V11.17791748c0-1.76397705-1.42120361-3.19793701-3.16949463-3.19793701h-.20791626c-1.74829101 0-3.16949462 1.43395996-3.16949462 3.19793701v11.32720947H21.97673035V11.17791748c0-1.76397705-1.42120362-3.19793701-3.16949463-3.19793701h-.20791626c-1.74829102 0-3.16949463 1.43395996-3.16949463 3.19793701zm5.28038025 11.32720947V11.17791748c0-1.05786133-.85322571-1.9187622-1.90170288-1.9187622h-.20918274c-1.04846192 0-1.90170288.86090087-1.90170288 1.9187622v11.32720947h4.0125885zm15.93113708 0V11.17791748c0-1.05786133.85324097-1.9187622 1.90170288-1.9187622h.20791626c1.04847718 0 1.90170288.86090087 1.90170288 1.9187622v11.32720947h-4.01132202zm5.83439637 1.27789307h-27.5986786c-.7733612 0-1.40345764.63574219-1.40345764 1.41607666v10.9050293c0 4.24816894 3.4255829 7.7045288 7.63720704 7.7045288h15.13116455c4.21035766 0 7.6359558-3.45635986 7.6359558-7.7045288v-10.9050293c0-.78033447-.62882995-1.41607666-1.40219115-1.41607666zm-9.67709351 24.3045044h-8.24575806v-2.9984131h8.24575806v2.9984131z"/>
    <path fill="rgb(31,142,250)" fill-rule="evenodd" d="M26.77683818 38.65584481c-.11721273 0-.23442545-.02794407-.33951273-.08637259-.28158-.15496259-.40552909-.47631944-.29370545-.76592166l1.38903818-3.600975-1.37152363-.3696239c-.21960546-.05842851-.39340364-.21847185-.46076728-.42424185-.06601636-.20577-.01886182-.43059277.12933818-.59571685L29.7058091 28.4715c.20478546-.22990352.5537291-.28960222.83261455-.15115204.28023272.14099056.41900181.44837537.33008181.73670741l-.9727309 3.1805437 1.4173309.38232574c.22095273.05842852.39475091.21974204.46076728.42678223.06736363.20831037.01616727.43313315-.13338.59698703l-4.35303818 4.78986834c-.13068546.1448011-.32065091.2222824-.51061637.2222824z"/>
  </g>
</svg>
