<svg xmlns="http://www.w3.org/2000/svg" width="39.567" height="25.044" viewBox="0 0 39.567 25.044">
  <g>
    <path fill="rgb(68,85,107)" fill-rule="evenodd" d="M19.77722954 15.8175c-2.41744125 0-4.79006625 1.05186375-6.41004188 2.84451375-.17473576.17141583-.24007667.42555276-.1696899.65999182.07038679.23443906.26490527.41055714.50516312.45737741.24025785.04682027.48667334-.04337076.63993928-.23422548 1.36162313-1.507935 3.40339875-2.41216875 5.43462938-2.41216875 2.0299125 0 4.07300625.90423375 5.43331125 2.41216875.15326594.19085472.39968144.28104575.63993929.23422548.24025784-.04682027.43477632-.22293835.5051631-.4573774.07038679-.23443907.00504587-.488576-.16968989-.65999183-1.61733938-1.79265-3.98996438-2.84451375-6.40872375-2.84451375z"/>
    <path fill="rgb(68,85,107)" fill-rule="evenodd" d="M19.77722954 7.90875c-5.13409688 0-10.15615313 2.64284063-13.06261875 6.87270375-.14067258.19386156-.165094.44878182-.06378623.66582516.10130778.21704335.31239429.36203724.55133599.37870894.2389417.01667171.46811822-.09760365.59858524-.29847535 2.64943125-3.8541975 7.29714-6.3006375 11.97648375-6.3006375s9.32837062 2.44644 11.97648375 6.3006375c.13046701.2008717.35964354.31514706.59858524.29847535.2389417-.0166717.4500282-.16166559.55133599-.37870894.10130778-.21704334.07688635-.4719636-.06378623-.66582516C29.93338266 10.5502725 24.91132641 7.90875 19.77722954 7.90875z"/>
    <path fill="rgb(68,85,107)" fill-rule="evenodd" d="M19.77722954 0c-7.52122125 0-14.93435625 3.57607312-19.6137 9.46150125-.1604354.18297117-.20699166.43945997-.12109581.66714367s.29026494.38950852.53157696.42091663c.24131203.03140811.48029532-.07271192.62161072-.2708228 4.41967313-5.557215 11.48086875-8.96325 18.5855625-8.96325 7.10469375 0 14.16588938 3.406035 18.5855625 8.96325.13993846.20173328.38041204.30895775.62400018.27823467.24358814-.03072309.44990629-.19430014.53537092-.42446288.08546462-.23016273.03590652-.48875242-.12859735-.67100929C34.71422204 3.57607312 27.3037233 0 19.7798658 0h-.00263625z"/>
    <path fill="rgb(68,85,107)" fill-rule="evenodd" d="M21.09535454 23.72625c0 .72798034-.59014466 1.318125-1.318125 1.318125s-1.318125-.59014466-1.318125-1.318125.59014466-1.318125 1.318125-1.318125 1.318125.59014466 1.318125 1.318125z"/>
  </g>
</svg>
