<svg xmlns="http://www.w3.org/2000/svg" width="37.62" height="34.2" viewBox="0 0 37.62 34.2">
  <g>
    <path fill="rgb(255,255,255)" fill-rule="evenodd" d="M19.95 4.68576254C19.95 4.30171942 19.6390509 3.99 19.25423746 3.99 15.2378329 3.99 11.97 7.2578329 11.97 11.27423746c0 .38404312.3109491.69576254.69576254.69576254.38472783 0 .69576253-.31171942.69576253-.69576254 0-3.24900305 2.64379493-5.89279798 5.89279798-5.89279798.38472784 0 .69567695-.3109491.69567695-.69567694z"/>
    <path fill="rgb(255,255,255)" fill-rule="evenodd" d="M10.69744385 17.59542236C9.29241455 15.792688 8.5499829 13.63173828 8.5499829 11.34621582c0-5.62713623 4.60290527-10.2062378 10.26031494-10.2062378 5.65734863 0 10.2597046 4.57836915 10.2597046 10.2062378 0 2.27081299-.73370362 4.4197998-2.12072755 6.21520996-2.9562378 4.06158447-2.18908691 6.02478027-2.18103027 6.04412842.13995361.33294678-.00994873.72442627-.34069824.87164307-.33074951.1472168-.71697998.01403808-.87426758-.31164551-.12451172-.2597046-1.12060547-2.67041016 2.32287598-7.40057373 1.2177124-1.57562256 1.85498046-3.4449463 1.85498046-5.4194336 0-4.89331054-4.00268554-8.87426757-8.92095947-8.87426757-4.91821289 0-8.92077637 3.98095703-8.92077637 8.87426757 0 1.96929932.63330079 3.83117676 1.83221436 5.38952637.01739502.01861572.03277588.03857422.04821777.0592041 3.44152832 4.72680664 2.48425293 7.11029053 2.36309815 7.3659668-.11376953.24176025-.35479737.38360596-.60650635.38360596-.09503174.00061035-.19134521-.02001954-.28308105-.06262207-.3347168-.15649414-.47930909-.55273438-.32269288-.88568116l.00054932-.00158691c.02172852-.06347656.68115234-1.99072266-2.20233154-5.97253418-.00732422-.008667-.01470948-.01727295-.02142334-.02600098zm14.40093994 8.69256592v.60333252c0 .96185303-.74371338 1.74414063-1.65753174 1.74414063H14.345271c-.91442871 0-1.65820313-.78302002-1.65820313-1.74414063v-.60333252c0-.96185303.74377442-1.74414062 1.65820313-1.74414062h9.09484863c.91381836 0 1.65826416.7822876 1.65826416 1.74414062zm-11.06152344.60333252v-.60339355c0-.17883301.13830567-.32440186.30847168-.32440186h9.09558106c.17004394 0 .30841064.14550781.30841064.32440186v.60339355c0 .178833-.13830566.32440186-.30841064.32440186h-9.09558106c-.17016601 0-.30847168-.14550782-.30847168-.32440186zm.63604736 3.37158203c0-.3562622.30651856-.64544678.68560792-.64544678.37915039 0 .68554687.28845215.68554687.6461792v1.28955079l3.0041504 1.29083251 3.02410888-1.34381103v-1.23657227c0-.3562622.30639648-.64544677.6856079-.64544677.37921143 0 .68560792.28918457.68560792.64544677v1.64520264c0 .24975586-.15289307.47692871-.39282227.58343506l-3.70489502 1.64581299c-.0925293.0413208-.19268799.06195068-.29278564.06195068-.09735108 0-.19396973-.01940918-.28448487-.05810547l-3.69458007-1.58709717c-.2440796-.1052246-.40106202-.33435058-.40106202-.5873413v-1.70458985z"/>
    <path fill="rgb(31,142,250)" fill-rule="evenodd" d="M34.08593992 23.10559226c.19155434-.28916228.1360855-.69690593-.12322419-.91051265l-3.9621427-3.2577027c-.2598845-.21360671-.62495861-.15239309-.81651295.13741017-.19155434.28916228-.1360855.69690593.12322419.91051264l3.9621427 3.2577027c.10454298.0859715.22604275.12699425.34632106.12699425.17876489.00064098.3557335-.09117946.4701919-.26440441z"/>
    <path fill="rgb(31,142,250)" fill-rule="evenodd" d="M7.53314155 4.43502617C7.64730753 4.5196299 7.77999115 4.56 7.91134088 4.56c.19576915 0 .38839972-.09035963.5141-.26082866.2091866-.28456187.14861193-.68581854-.13456677-.8960269L3.86641274.12543962c-.2831787-.21083913-.68248501-.14933782-.89167161.13522405-.2091866.28519265-.14923965.68644932.13456677.89665767l4.42383365 3.27770484z"/>
    <path fill="rgb(31,142,250)" fill-rule="evenodd" d="M7.56762126 18.9309285l-4.46728182 3.31859294c-.27357667.20359841-.33209736.59223768-.13000388.86785158.12075579.16510868.30746106.25262698.49666786.25262698.12689591 0 .2550805-.03910067.36537532-.12104406l4.46728182-3.31859295c.27357667-.2035984.33209736-.59223768.13000388-.86785158-.20338216-.27622484-.58846652-.33457037-.86204318-.13158291z"/>
    <path fill="rgb(31,142,250)" fill-rule="evenodd" d="M29.3155023 3.34668832c-.26829053.2204668-.32568047.64130535-.1274919.93975422.1184225.17878816.3015202.27355746.4870711.27355746.124444 0 .25015175-.04300178.35831543-.13107272l3.92110077-3.21578866c.26829053-.2204668.32568047-.64130535.1274919-.93975422-.19818858-.29844887-.57590657-.36295154-.84479182-.14182317l-3.92169548 3.2151271z"/>
    <path fill="rgb(31,142,250)" fill-rule="evenodd" d="M36.9701609 10.83h-4.9703218c-.35933408 0-.6498391.38306188-.6498391.855 0 .47193812.29042508.855.6498391.855h4.9703218c.35933408 0 .6498391-.38306188.6498391-.855 0-.47193812-.29050502-.855-.6498391-.855z"/>
    <path fill="rgb(31,142,250)" fill-rule="evenodd" d="M6.27 11.685c0-.47193812-.2832634-.855-.63381454-.855H.63381454C.28334137 10.83 0 11.21306188 0 11.685c0 .47193812.2832634.855.63381454.855h5.00244889C5.98603487 12.53989482 6.27 12.15693812 6.27 11.685z"/>
  </g>
</svg>
