<svg xmlns="http://www.w3.org/2000/svg" width="38.76" height="30.627" viewBox="0 0 38.76 30.627">
  <g>
    <path fill="rgb(255,255,255)" fill-rule="evenodd" d="M16.3527832.97328206c.6196289-.37335205 1.36633301-.38500976 1.99621582-.02838134.64538575.36499023 1.03100586 1.03033447 1.03100586 1.78033447v25.63781738c0 .75067139-.38562011 1.41601563-1.03100586 1.7803955-.30688476.17309571-.64025879.25903321-.97424316.25964356-.35205078 0-.70410156-.09625244-1.02197266-.28808593-.03674316-.02197266-.07165527-.04779053-.1040039-.07751465L7.5 22.00123616l-6.8540039.00323487c-.171875 0-.33532715-.06848145-.45666505-.18927002C.0678711 21.69441243 0 21.5302889 0 21.35847493V9.08448812c0-.35723877.28881836-.6459961.6459961-.6459961H7.515625l8.7532959-7.40509033c.02575683-.02197265.05419922-.04266357.0838623-.06011963zm1.36120606 28.0454712c.23376465-.1324463.37402344-.3772583.37402344-.65570069V2.7252352c0-.27838135-.1402588-.5232544-.37402344-.65570069-.10021973-.05682373-.35852051-.16790771-.65637207-.01159668L8.39794922 9.38356038v2.93029786c0 .35723876-.28869629.64599609-.6459961.64599609-.35717773 0-.64599609-.28875733-.64599609-.6459961v-2.5840454H1.2919922v10.98199462l5.81396484-.00256347v-2.5814209c0-.35723877.28881836-.6459961.6459961-.6459961.3572998 0 .64599609.28875733.64599609.6459961v2.94317627l8.67004394 7.96453857c.2919922.14794922.54577637.03942871.6459961-.01678467z"/>
    <path fill="rgb(31,142,250)" fill-rule="evenodd" d="M33.6088253 15.22145582c0-5.392162-3.434136-10.18096-8.545934-11.916762-.337212-.114342-.704786.066538-.819774.404396-.114342.337212.066538.704786.404396.819774 4.587246 1.557506 7.669312 5.854698 7.669312 10.693238 0 4.834018-3.076252 9.131856-7.654454 10.693884-.337212.114988-.518092.481916-.402458.82042.091732.26809.34238.437342.611116.437342.069122 0 .139536-.010982.208658-.034884 5.102108-1.74097 8.529138-6.529768 8.529138-11.917408z"/>
    <path fill="rgb(255,255,255)" fill-rule="evenodd" d="M28.7166673.05079182c-.328168-.137598-.70737.013566-.847552.34238-.13889.328814.014212.708016.343026.847552 5.622784 2.385678 9.255888 7.874094 9.255888 13.980732 0 6.315942-3.807524 11.87348-9.69969 14.156444-.33269.1292-.498066.503234-.368866.835924.098838.255816.343672.412794.602718.412794.07752 0 .156332-.013566.233206-.043282 6.393462-2.478702 10.524632-8.508466 10.524632-15.36188 0-6.626668-3.942538-12.581496-10.043362-15.170664z"/>
    <path fill="rgb(255,255,255)" fill-rule="evenodd" d="M27.7948253 15.22145582c0-3.857912-2.589814-7.301092-6.297854-8.373452-.34238-.097546-.700264.098192-.799748.441864-.098838.34238.098192.70091.441864.799748 3.158294.912798 5.364384 3.845638 5.364384 7.13184 0 3.286202-2.20609 6.219042-5.364384 7.13184-.343026.098838-.540702.457368-.441864.799748.082042.282948.339796.467058.620806.467058.059432 0 .11951-.008398.178942-.025194 3.708686-1.073006 6.297854-4.516186 6.297854-8.373452z"/>
  </g>
</svg>
