<svg xmlns="http://www.w3.org/2000/svg" xmlns:xlink="http://www.w3.org/1999/xlink" width="133.375" height="134" viewBox="0 0 133.375 134">
  <defs>
    <path id="path-1" fill-rule="evenodd" d="M133.37524414 67c0-36.978302-29.88171387-67-66.68762207-67C29.88171387 0 0 30.021698 0 67s29.88171387 67 66.68762207 67c36.8059082 0 66.68762207-30.021698 66.68762207-67zm-18.91137695 0c0-26.49191284-21.40783692-48-47.77624512-48-26.36834717 0-47.77618408 21.50808716-47.77618408 48s21.40783691 48 47.77618408 48c26.3684082 0 47.77624512-21.50808716 47.77624512-48z"/>
    <mask id="mask-2" maskContentUnits="userSpaceOnUse" maskUnits="userSpaceOnUse">
      <rect width="133.375" height="134" x="0" y="0" fill="black"/>
      <use fill="white" xlink:href="#path-1"/>
    </mask>
  </defs>
  <g>
    <use fill="rgb(31,142,250)" xlink:href="#path-1"/>
    <g mask="url(#mask-2)">
      <rect width="87.59" height="87" x="66.688" y="-15" fill="rgb(216,216,216)" rx="0" ry="0"/>
      <rect width="87.59" height="87" x="66.688" y="-15" fill="rgb(255,171,79)" rx="0" ry="0"/>
      <path fill="rgb(238,66,61)" fill-rule="evenodd" d="M154.74008755 68.234375l-8.20376238 13.31640625-11.2325448 35.08203125L66.6876673 72l88.05242024-3.765625z"/>
      <path fill="rgb(132,63,160)" fill-rule="evenodd" d="M135.47406897 116.25121225l-8.20376238 13.31640625-48.83867043 8.75042513L66.68766731 72l68.78640166 44.25121225z"/>
      <path fill="rgb(5,201,133)" fill-rule="evenodd" d="M4.84063024 17.00585938l31.7370907-35.04492188L68.2584351-15.96875 66.6876673 72 4.84063024 17.00585937z"/>
    </g>
  </g>
</svg>
