<svg xmlns="http://www.w3.org/2000/svg" width="3" height="15" viewBox="0 0 3 15">
  <path fill="rgb(112,136,158)" fill-rule="evenodd" d="M3 1.5C3 .67500001 2.32500005 0 1.5 0 .67500001 0 0 .67500001 0 1.5 0 2.32500005.67500001 3 1.5 3 2.32500005 3 3 2.32500005 3 1.5zm-3 6C0 8.3249998.67500001 9 1.5 9 2.32500005 9 3 8.3249998 3 7.5S2.32500005 6 1.5 6C.67500001 6 0 6.6750002 0 7.5zM1.5 15C.67500001 15 0 14.3249998 0 13.5S.67500001 12 1.5 12c.82500005 0 1.5.6750002 1.5 1.5S2.32500005 15 1.5 15z"/>
</svg>
