<svg xmlns="http://www.w3.org/2000/svg" width="45.463" height="27.321" viewBox="0 0 45.463 27.321">
  <g>
    <path fill="rgb(2,128,192)" fill-rule="evenodd" d="M27.20281154 13.66065026c0 7.54477892-6.08918075 13.6602185-13.60108335 13.6602185C6.08961064 27.32086875 0 21.20542917 0 13.66065025 0 6.1160872 6.08961064 0 13.60172819 0c7.5119026 0 13.60108335 6.1160872 13.60108335 13.66065026"/>
    <path fill="rgb(230,27,45)" fill-rule="evenodd" d="M31.86239219 0c-3.51521275 0-6.7170355 1.33910165-9.13129926 3.53589327-.49114963.44773446-.9496276.93130494-1.37285458 1.44617798h2.74807356c.37529421.4589602.72114093.94145128 1.03689534 1.44682561h-4.82207918c-.28845637.4643572-.55068943.94684828-.78368996 1.44682562h6.38902921c.21838426.46824302.41054521.95051823.57605297 1.44617797h-7.54113514c-.15690995.47104946-.28931616.95375643-.39506916 1.4459621h8.33084356c.1994691.93260021.30565199 1.90017294.30565199 2.8927877 0 1.51655476-.24611218 2.97633315-.70029125 4.33961333h-7.54113514c.16550775.49522798.3576687.97815083.57562307 1.4470415h6.3894591c-.23343042.49868205-.49437381.9816049-.78454974 1.44660973h-4.8207895c.31446473.50386317.66095629.9870019 1.03711027 1.44531445h2.74721378c-.42236719.5153048-.88127505.99887528-1.3739293 1.44660974 2.41404881 2.19679162 5.61565661 3.53502975 9.13086936 3.53502975 7.51168766 0 13.60108335-6.11543957 13.60108335-13.6602185C45.46347554 6.11673486 39.37407984 0 31.86239219 0"/>
    <text font-size="0" style="white-space:pre">
      <tspan x="1" y="17" fill="rgb(255,255,255)" font-family="Arial" font-size="11" font-weight="700" style="white-space:pre;text-transform:none" font-style="italic">Maestro</tspan>
    </text>
  </g>
</svg>
