<svg xmlns="http://www.w3.org/2000/svg" width="45.463" height="27.321" viewBox="0 0 45.463 27.321">
  <g>
    <path fill="rgb(204,0,0)" fill-rule="evenodd" d="M27.20281154 13.66065026c0 7.54477892-6.08918075 13.6602185-13.60108335 13.6602185C6.08961064 27.32086875 0 21.20542917 0 13.66065025 0 6.1160872 6.08961064 0 13.60172819 0c7.5119026 0 13.60108335 6.1160872 13.60108335 13.66065026"/>
    <path fill="rgb(255,153,0)" fill-rule="evenodd" d="M31.86239219 0c-3.51521275 0-6.7170355 1.33910165-9.13129926 3.53589327-.49114963.44773446-.9496276.93130494-1.37285458 1.44617798h2.74807356c.37529421.4589602.72114093.94145128 1.03689534 1.44682561h-4.82207918c-.28845637.4643572-.55068943.94684828-.78368996 1.44682562h6.38902921c.21838426.46824302.41054521.95051823.57605297 1.44617797h-7.54113514c-.15690995.47104946-.28931616.95375643-.39506916 1.4459621h8.33084356c.1994691.93260021.30565199 1.90017294.30565199 2.8927877 0 1.51655476-.24611218 2.97633315-.70029125 4.33961333h-7.54113514c.16550775.49522798.3576687.97815083.57562307 1.4470415h6.3894591c-.23343042.49868205-.49437381.9816049-.78454974 1.44660973h-4.8207895c.31446473.50386317.66095629.9870019 1.03711027 1.44531445h2.74721378c-.42236719.5153048-.88127505.99887528-1.3739293 1.44660974 2.41404881 2.19679162 5.61565661 3.53502975 9.13086936 3.53502975 7.51168766 0 13.60108335-6.11543957 13.60108335-13.6602185C45.46347554 6.11673486 39.37407984 0 31.86239219 0"/>
    <path fill="rgb(0,0,102)" fill-rule="evenodd" d="M10.27539063 17.66723633h1.2236328c.03808595-.4260254.3125-2.1760254.44140626-2.9921875.07324218-.47021485.12207031-.82641602.11914062-1.11645508.00097657-1.08081055-.66992187-1.65234375-1.93847656-1.65234375-.54589844 0-1.03125.08105469-1.76660156.29833984l-.20507813 1.26733399c.24414063-.0805664.84082032-.26123047 1.5625-.25390625.69042969 0 .94726563.13989258.94726563.51293945 0 .1003418-.01171875.17919922-.05761719.36547852-.21972656-.02783203-.43457031-.04345703-.60253906-.04345703-1.63769532 0-2.59179688.80029296-2.59179688 2.17260742 0 .9116211.54882813 1.5390625 1.34863282 1.5390625.6767578 0 1.17480468-.22021485 1.54785156-.68139649l-.02832032.58398438zm-.1796875-2.53417969c.1064453 0 .17480468.00561524.33007812.02319336-.02539063.83374023-.45898438 1.4086914-1.06054688 1.4086914-.32226562 0-.52929687-.22290038-.52929687-.57373046 0-.56982422.42285156-.8581543 1.25976563-.8581543z"/>
    <path fill="rgb(0,0,102)" fill-rule="evenodd" d="M6.789472 17.66716123H5.31258397l.84645395-5.32618346-1.8891528 5.32618346H3.26372694l-.12445323-5.29639206-.88901308 5.29639206H.8681634l1.15447033-6.92909008h2.123443l.12832224 3.87849433 1.29547433-3.87849433h2.3616022L6.789472 17.66716123"/>
    <path fill="rgb(0,0,102)" fill-rule="evenodd" d="M33.53808594 17.66723633h1.22363281c.03710938-.4260254.3125-2.1760254.44042969-2.9921875.07421875-.47021485.12207031-.82641602.11914062-1.11645508.00195313-1.08081055-.66894531-1.65234375-1.93847656-1.65234375-.54492188 0-1.03027344.08105469-1.765625.29833984l-.20605469 1.26733399c.24511719-.0805664.84082031-.26123047 1.56347656-.25390625.68945313 0 .94726563.13989258.94726563.51293945 0 .1003418-.01269531.17919922-.05761719.36547852-.22070312-.02783203-.43457031-.04345703-.60253906-.04345703-1.63769531 0-2.59179688.80029296-2.59179688 2.17260742 0 .9116211.54785157 1.5390625 1.34960938 1.5390625.67578125 0 1.17382813-.22021485 1.546875-.68139649l-.02832031.58398438zm-.1796875-2.53417969c.10546875 0 .17382812.00561524.328125.02319336-.02539063.83374023-.45898438 1.4086914-1.05957032 1.4086914-.32324218 0-.52929687-.22290038-.52929687-.57373046 0-.56982422.42285156-.8581543 1.26074219-.8581543z"/>
    <path fill="rgb(0,0,102)" fill-rule="evenodd" d="M18.06183975 17.581457c-.4043118.12780077-.71920642.18306597-1.06096919.18306597-.75467237 0-1.1667222-.4356452-1.1667222-1.23806997-.0105323-.24912515.1085473-.90431997.20226338-1.50187493.08554816-.52653054.6405365-3.84546473.6405365-3.84546473h1.46743044l-.17131127.85294061h.88664869l-.20011393 1.35442911h-.88965791c-.1704515 1.07141085-.41355444 2.4064108-.41634873 2.58343213 0 .29057405.1543306.4175113.5057659.4175113.16830205 0 .2985588-.01727037.3980784-.0531064l-.19560008 1.2471369"/>
    <path fill="rgb(0,0,102)" fill-rule="evenodd" d="M21.05664063 17.76464844c.515625.00170898 1.00097656-.07397461 1.50585937-.22875977l.24414063-1.4008789c-.5263672.24536132-1.00097657.35424804-1.52539063.35424804-.85449219 0-1.375-.34057617-1.27636719-1.15795898h2.92285156c.1279297-.5690918.18066407-.97241211.18066407-1.38623047 0-1.24487305-.77246094-2.03881836-1.98242188-2.03881836-1.47949219 0-2.56933594 1.4182129-2.56933594 3.34448242 0 1.65039063.85644532 2.51171875 2.5 2.51391602zm-.0029297-4.57519531c.7841797 0 .7060547.7770996.68359376 1.00610351h-1.62109375c.13574219-.64819336.47070312-1.00610351.9375-1.00610351z"/>
    <path fill="rgb(0,0,102)" fill-rule="evenodd" d="M12.38513872 13.81370895c0 .71218706.34391222 1.2037451 1.12416306 1.57311522.59776242.2825865.69083366.36613194.69083366.62194936 0 .35080448-.26395262.51012369-.84795856.51012369-.44085247 0-.8505379-.06951326-1.32320225-.22300371 0 0-.19366557 1.24260343-.2029082 1.30197034.33552935.07296734.63473298.14096944 1.53664277.16665912 1.55792234 0 2.27755865-.59582792 2.27755865-1.8835502 0-.77414454-.30092319-1.22857127-1.04076434-1.57052468-.61882705-.28517706-.69040378-.34907744-.69040378-.6120189 0-.30460622.2456823-.46025547.72264555-.46025547.28996098 0 .68567498.03108668 1.06118413.08440896l.2100014-1.30693558c-.38217245-.06109395-.96209443-.109451-1.2995583-.109451-1.65163841 0-2.22360742.86632515-2.2182338 1.90751285"/>
    <path fill="rgb(0,0,102)" fill-rule="evenodd" d="M29.74346304 12.0549372c.41011532 0 .79314755.10707632 1.31954819.37411948l.24181328-1.50381785c-.21709459-.08548835-.97821532-.58654509-1.62305072-.58654509-.98788785 0-1.82402442.4930692-2.41103959 1.30499267-.8572012-.28496118-1.20992617.2910058-1.641536.86524575l-.38367707.08980595c.0290176-.18889472.05545585-.37649416.04707299-.56668416h-1.3567337c-.18485282 1.7445237-.51307404 3.51085123-.76993348 5.25602256l-.06727782.37908472h1.47731791c.24654208-1.60916713.38131268-2.63912908.46342172-3.3368522l.556278-.30957147c.08361367-.31108262.34305244-.41556838.86493923-.40283148-.0681376.36742721-.10510817.75449948-.10510817 1.15495629 0 1.84382834.99175686 2.9916606 2.5806313 2.9916606.40947049 0 .76112073-.05396992 1.30557676-.2029269l.25879394-1.57894398c-.48964502.24156936-.8905177.35533795-1.25398992.35533795-.85849087 0-1.37801327-.63662917-1.37801327-1.6881791 0-1.52605345.77208293-2.59487374 1.87496642-2.59487374"/>
    <path fill="rgb(0,0,102)" fill-rule="evenodd" d="M41.91699219 12.73999023l.328125-2.00195312h1.45703125l-1.125 6.92871094H41.1796875L41.25 17.14257813c-.40527344.43432617-.8203125.62182617-1.36230469.62182617-1.07324218 0-1.78222656-.9296875-1.78222656-2.33789063 0-.64819336.13183594-1.27978515.35742188-1.82861328-.39746094-.02026367-.63867188.21875-.96582032.54296875-.09179687.09082031-.19042968.18823242-.30078125.28857422-.11230468.85620117-.265625 1.93725586-.46484375 3.23779297h-1.47753906l.06835938-.3791504c.25585937-1.74511718.58496093-3.5114746.76953125-5.2561035h1.3564453c.00488282.09716796-.01660156.38134765-.06542968.84814452 0-.0012207.03222656.00878907.08886719.02661133.19628906.06152344.68847656.21606445 1.16894531.31616211.44433594-.83544922 1.12207031-1.40283203 1.8671875-1.40283203.57226563 0 1.00683594.3864746 1.40917969.91992187zm-2.27539063 2.5144043c0 .73657227.25488282 1.11083984.75683594 1.11083984.6875 0 1.17089844-.78295898 1.17089844-1.90014648 0-.71582031-.27539063-1.10351562-.78222657-1.10351562-.66992187 0-1.1455078.78515625-1.1455078 1.89282226z"/>
    <path fill="rgb(255,255,255)" fill-rule="evenodd" d="M7.21420359 17.25591044H5.73774545l.846239-5.32618346-1.8887229 5.32618346H3.68867346l-.12423828-5.29531266-.88922803 5.29531266H1.29310994L2.44758026 10.327468h2.123443l.05932485 4.28909748L6.0631724 10.327468h2.29324965l-1.14221845 6.92844244"/>
    <path fill="rgb(255,255,255)" fill-rule="evenodd" d="M10.70117188 17.25585938h1.2236328c.03710938-.42529297.3125-2.17651368.44140626-2.99194336.07421875-.46875.12109375-.8269043.11914062-1.11645508.00097657-1.08032227-.67089843-1.6525879-1.93847656-1.6525879-.54589844 0-1.03125.08178712-1.76757813.298584l-.20410156 1.26708984c.24414063-.08056641.83984375-.26123047 1.5625-.25268555.69042969 0 .94726563.13891601.94726563.51171875 0 .10083008-.01171875.17993164-.05761719.36645508-.21972656-.02856446-.43457031-.04370118-.6015625-.04370118-1.63867188 0-2.59277344.79907227-2.59277344 2.17163086 0 .91137696.54882813 1.53955078 1.34863282 1.53955078.6767578 0 1.17480468-.22021484 1.54785156-.68115234l-.02832032.5834961zm-.1796875-2.53320313c.1064453 0 .17480468.00488281.32910156.02319336-.02539063.83374023-.45898438 1.4086914-1.06054688 1.4086914-.32226562 0-.52929687-.22436523-.52929687-.57470703 0-.5690918.42382812-.85717773 1.26074218-.85717773z"/>
    <path fill="rgb(255,255,255)" fill-rule="evenodd" d="M31.7295561 10.51398804l-.24181328 1.50360197c-.52726042-.26617964-.90921793-.3739036-1.31890335-.3739036-1.1024536 0-1.8758262 1.07011557-1.8758262 2.5963849 0 1.05154993.51973733 1.68688382 1.3782282 1.68688382.36368718 0 .76541963-.11290507 1.25398993-.35533795l-.25943878 1.57894398c-.54359625.1487411-.89546144.20314278-1.30471697.20314278-1.58994917 0-2.58020141-1.14804814-2.58020141-2.99144473 0-2.47700344 1.36898557-4.2081426 3.32584608-4.2081426.6448354 0 1.40638602.27438308 1.62283578.35987143"/>
    <path fill="rgb(255,255,255)" fill-rule="evenodd" d="M33.96289063 17.25585938h1.2236328c.03710938-.42529297.3125-2.17651368.4404297-2.99194336.07421875-.46875.1220703-.8269043.11914062-1.11645508.00195313-1.08032227-.66992188-1.6525879-1.93847656-1.6525879-.54589844 0-1.03027344.08178712-1.76660157.298584l-.20507812 1.26708984c.24609375-.08056641.84082031-.26123047 1.56347656-.25268555.68945313 0 .94628907.13891601.94628907.51171875 0 .10083008-.01171875.17993164-.0576172.36645508-.21972656-.02856446-.43359374-.04370118-.6015625-.04370118-1.63867187 0-2.59179687.79907227-2.59179687 2.17163086 0 .91137696.54785156 1.53955078 1.34863281 1.53955078.67578125 0 1.17382813-.22021484 1.546875-.68115234l-.02734375.5834961zm-.18066407-2.53320313c.10644532 0 .17480469.00488281.32910157.02319336-.02441407.83374023-.45898438 1.4086914-1.05957032 1.4086914-.32226562 0-.52929687-.22436523-.52929687-.57470703 0-.5690918.42382812-.85717773 1.25976562-.85717773z"/>
    <path fill="rgb(255,255,255)" fill-rule="evenodd" d="M18.48657134 17.17042209c-.40388191.12780077-.71920642.18328185-1.0605393.18328185-.75488732 0-1.16715209-.43586108-1.16715209-1.23742233-.01031736-.24998867.10897719-.9041041.20290821-1.50230669.08490333-.5269623.64010662-3.84546473.64010662-3.84546473h1.46786033l-.17174117.85272473h.75359765l-.20075876 1.35399735h-.75596204c-.1704515 1.07249025-.41355444 2.40662667-.41656367 2.58364801 0 .29143757.15497544.4175113.50598085.4175113.16830204 0 .29834385-.01662274.39829333-.05332228l-.19602996 1.24735279"/>
    <path fill="rgb(255,255,255)" fill-rule="evenodd" d="M21.48046875 17.35351563c.515625.00048828 1.00195313-.07275391 1.50683594-.2277832l.24414062-1.40209962c-.52734375.24609375-1.00097656.35546875-1.52636719.35546875-.85351562 0-1.375-.34106445-1.27539062-1.1586914h2.92285156c.12695313-.56933594.18066406-.97216797.18066406-1.38525391 0-1.2463379-.77246093-2.0402832-1.984375-2.0402832-1.47851562 0-2.5673828 1.41821289-2.5673828 3.3449707 0 1.65039063.85546874 2.51269531 2.49902343 2.51367188zm-.00097656-4.57519532c.78320312 0 .70507812.77636719.68261719 1.00585938h-1.62109376c.1357422-.6472168.47070313-1.00585938.93847657-1.00585938z"/>
    <path fill="rgb(255,255,255)" fill-rule="evenodd" d="M12.8098703 13.40245816c0 .71348234.34434211 1.20396097 1.1248079 1.57376286.59776242.28237063.69040378.36591606.69040378.62194936 0 .35123624-.26373768.50969193-.8481735.50969193-.4404226 0-.85032296-.06864974-1.32320226-.22170844 0 0-.19345063 1.24173992-.20247832 1.30024332.33531441.07383085.63473298.1411853 1.53621288.16730675 1.55835224 0 2.27798855-.59561204 2.27798855-1.88333433 0-.77457629-.30135308-1.22878714-1.04097929-1.56987703-.619042-.28604058-.69018883-.34929332-.69018883-.61266653 0-.30460623.24546734-.46133488.72286049-.46133488.28931615 0 .68546004.03238195 1.06075424.08548836l.21021635-1.3067197c-.3823874-.0606622-.96187948-.11031452-1.2995583-.11031452-1.6520683 0-2.22360742.86654103-2.21866368 1.90751285"/>
    <path fill="rgb(255,255,255)" fill-rule="evenodd" d="M41.60449219 17.25585938h1.39648437l1.125-6.9284668h-1.45605468l-.328125 2.00219726c-.40332032-.53344726-.83691407-.76855468-1.41015625-.76855468-1.30175782 0-2.40234375 1.57983398-2.40234375 3.45410156 0 1.40966797.70996093 2.3383789 1.78320312 2.3383789.54101563 0 .95605469-.1875 1.36132813-.6220703l-.06933594.52441406zm.38964843-3.2006836c0 1.11621094-.48242187 1.89868164-1.17089843 1.89868164-.50195313 0-.75683594-.37280273-.75683594-1.11010742 0-1.1081543.47558594-1.89355469 1.14550781-1.89355469.50683594 0 .78222657.38891602.78222657 1.10498047z"/>
    <path fill="rgb(255,255,255)" fill-rule="evenodd" d="M36.51638427 11.62123492c-.18463787 1.74409193-.51307404 3.51041947-.76993348 5.25580668l-.06727783.37886884H37.156061c.52833514-3.44587145.65536772-4.11833665 1.48419616-4.03435945.13176137-.70527892.37744366-1.32291068.56036197-1.63420918-.61839715-.1295278-.96381399.22149255-1.41648844.88856076.03611078-.28863113.10123916-.56862707.08898728-.85466765h-1.3567337"/>
    <path fill="rgb(255,255,255)" fill-rule="evenodd" d="M24.36145179 11.62123492c-.18549765 1.74409193-.51436371 3.51041947-.77079326 5.25580668l-.06706288.37886884h1.47731792c.52855009-3.44587145.65515277-4.11833665 1.48269154-4.03435945.13262115-.70527892.37873333-1.32291068.56122175-1.63420918-.61775232-.1295278-.96381399.22149255-1.41562866.88856076.0356809-.28863113.10123916-.56862707.08834245-.85466765h-1.35608886"/>
  </g>
</svg>
