<svg xmlns="http://www.w3.org/2000/svg" width="29.333" height="36" viewBox="0 0 29.333 36">
  <path fill="rgb(68,85,107)" fill-rule="evenodd" d="M25.3333435 13.40866089V9.66667175C25.3333435 4.33666992 20.54800416 0 14.6666565 0 8.78533935 0 4 4.33666992 4 9.66667175v3.74198914c-2.26733398.39067078-4 2.3666687-4 4.74467468v13.02799988C0 33.83799744 2.1619873 36 4.81933594 36h19.69467163c2.65731811 0 4.81933594-2.16200256 4.81933594-4.81933594V18.15266418c0-2.37733459-1.73266602-4.35333251-4-4.7440033zM14.6666565 1.33332825c-5.14666749 0-9.33334351 3.73800659-9.33334351 8.33332824v3.66667176h18.6666565V9.66665649c0-4.59532165-4.18664552-8.33332824-9.333313-8.33332824zm0 17.3333435C13.1960144 18.66667175 12 19.8626709 12 21.33334351v4C12 26.80400085 13.1960144 28 14.6666565 28c1.4706726 0 2.666687-1.19599915 2.666687-2.6666565v-4c0-1.4706726-1.1960144-2.66667175-2.666687-2.66667175z"/>
</svg>
