<svg xmlns="http://www.w3.org/2000/svg" width="42" height="42" viewBox="0 0 42 42">
  <path fill="rgb(68,85,107)" fill-rule="evenodd" d="M42 21C42 9.40979004 32.59020996 0 21 0S0 9.40979004 0 21s9.40979004 21 21 21 21-9.40979004 21-21zm-20.3156128-9.66210938v-1.3289032C21.6843872 9.33631898 21.421875 9 20.89691163 9c-.51678467 0-.77520752.3445282-.77520752 1.03359985v1.30429078c-1.69805908.1476593-2.99621582.6726532-3.89440918 1.57499694-.8982544.90235901-1.3474121 2.05897522-1.3474121 3.46992493 0 1.0828247.22973632 1.96875.6890869 2.6578064.4593506.68907165 1.05822755 1.22021484 1.7965088 1.59346008.73828125.37324524 1.65698242.71162414 2.75622558 1.01513672v5.72167969q-.82446289-.23377991-1.3227539-.67675782c-.33221436-.29530334-.5803833-.62138366-.7444458-.9782257-.1640625-.35682679-.35681153-.87156678-.57830811-1.54423523-.0984497-.3117218-.27478027-.55371094-.52911377-.72596741q-.3814087-.2584076-.93511963-.2584076c-.45941162 0-.8428955.15791321-1.1505127.47373963q-.46142578.47372436-.46142578 1.06434631c0 .53320313.11486817 1.07666016.34454346 1.6303711.2296753.55371093.58447266 1.08691406 1.06433106 1.59960937.47991943.51269531 1.07873535.9413147 1.79650878 1.2858429.71777344.3445282 1.55651856.57011413 2.5162964.67675781v2.12226868c0 .3773346.05944823.65625.17840575.8367157.11895752.1804657.32611084.27070617.62139893.27070617.31994629 0 .52703857-.11074829.62139892-.33222961.09429932-.22148133.1414795-.57421875.1414795-1.05819702v-1.86387635c1.17303466-.09843444 2.18615722-.40605163 3.0392456-.92285156.85314942-.51679993 1.49914551-1.18328857 1.93798828-1.99951172.43890381-.81620788.6583252-1.69187927.6583252-2.62704468 0-.74649047-.13739014-1.4335022-.41223145-2.06103515-.27478027-.62754822-.6665039-1.16690064-1.17504882-1.61807251-.47583008-.43476868-1.01513672-.76698303-1.61810303-.99667359-.60290528-.22969055-1.41296387-.48399353-2.43017578-.76289367v-5.1187439c1.03363037.33631897 1.68572998 1.0171814 1.95648193 2.04257202.237854.86953736.75878906 1.30429077 1.5626831 1.30429077q.63983155 0 1.08892823-.44911193c.29943848-.29942322.44915771-.65420533.44915771-1.06436158 0-.36914062-.1005249-.77519226-.30145263-1.2181549-.20098877-.4429779-.48608399-.87364197-.85522461-1.2919922-.4675293-.54962157-1.01513672-.95977782-1.64263916-1.23046874-.62756348-.27070618-1.380188-.45117188-2.25793457-.54141236zm-1.5626831 7.11210633v-4.71269226c-.68908691.20507812-1.2263794.4757843-1.61193847.81210327-.38555909.33633423-.57830811.84492493-.57830811 1.52578735 0 .64805603.18048096 1.1381836.54138184 1.47041321.36096191.33222961.9105835.63368225 1.64886474.90438843zm1.5626831 9.04394531V22.1044922c.85314942.27070617 1.49914551.60087585 1.93798829.99052429.43884277.38964844.6583252.9413147.6583252 1.65498352 0 .66445923-.22558594 1.24687195-.67675782 1.74726868-.45117187.50039673-1.09106445.83261108-1.91955566.99667358z"/>
</svg>
