<svg xmlns="http://www.w3.org/2000/svg" width="36" height="36" viewBox="0 0 36 36">
  <path fill="rgb(68,85,107)" fill-rule="evenodd" d="M31.4831543 0H4.5168457C2.02624512 0 0 2.02619934 0 4.51679993v26.96580505C0 33.97380066 2.02624512 36 4.5168457 36h26.96569825C33.97375488 36 36 33.97380066 36 31.48320007V4.51679993C36 2.02619934 33.97375488 0 31.4831543 0zM3.59997559 7.80000305C3.59997559 10.1195984 5.48034668 12 7.79992676 12 10.1196289 12 12 10.11959839 12 7.80000305c0-2.31959534-1.8803711-4.19999695-4.20007324-4.19999695-2.31958008 0-4.19995117 1.88040161-4.19995117 4.19999695zM14.39990234 9c.66235352 0 1.20007325.53770447 1.20007325 1.19999695 0 .66230774-.53771973 1.19999695-1.20007325 1.19999695-.66223144 0-1.19995117-.53768921-1.19995117-1.19999695C13.19995117 9.53770447 13.7376709 9 14.39990234 9zm5.40014649 1.19999695C19.80004883 9.53770447 19.2623291 9 18.59997559 9c-.66223145 0-1.19995118.53770447-1.19995118 1.19999695 0 .66230774.53771973 1.19999695 1.19995118 1.19999695.66235351 0 1.20007324-.53768921 1.20007324-1.19999695z"/>
</svg>
