<svg xmlns="http://www.w3.org/2000/svg" width="42.754" height="13.782" viewBox="0 0 42.754 13.782">
  <g>
    <path fill="rgb(255,255,255)" fill-rule="evenodd" d="M14.80327869 13.35185915L16.97071648 0h3.46457143l-2.16723964 13.35185915H14.8032787"/>
    <path fill="rgb(255,255,255)" fill-rule="evenodd" d="M30.83851696.56019718C30.15348931.29222535 29.07611143 0 27.73399622 0c-3.4253364 0-5.83650691 1.8119155-5.85652073 4.4064507-.02179724 1.9191831 1.72059447 2.98949296 3.03417511 3.62738029 1.35004148.65385915 1.80362212 1.07228169 1.79827189 1.65692957-.00931336.89422536-1.07757604 1.30397183-2.07370968 1.30397183-1.38709677 0-2.12404147-.2017183-3.2634424-.70019718l-.44565437-.21256338-.48449309 2.98870423c.8078848.37188732 2.305553.69467605 3.85989401.7116338 3.6403364 0 6.00573272-1.79002817 6.03347465-4.56064789.01248388-1.52185915-.9107281-2.67538028-2.91012903-3.62777465-1.21073733-.61915493-1.95382488-1.02929577-1.94530415-1.65594366.00079263-.55487324.62776037-1.14898591 1.98473733-1.14898591 1.13325807-.01814085 1.95362673.24174648 2.59288019.51307042l.31110599.15261972.46923502-2.8944507"/>
    <path fill="rgb(255,255,255)" fill-rule="evenodd" d="M37.27246094 0h2.67773437l2.80371094 13.34301758h-3.21582031s-.31738282-1.53442383-.421875-2.00048828l-4.4375-.00683594c-.13476563.36132812-.72851563 2.00732422-.72851563 2.00732422h-3.63867187l5.14550781-12.23632813C35.8203125.23632813 36.44238281 0 37.27246094 0zm-.21679688 4.87231445S35.96289063 7.8371582 35.67578125 8.6044922h2.87597656C38.41503906 7.93701172 37.75 4.75024414 37.75 4.75024414l-.23339844-1.15161133c-.09570312.27416992-.23046875.640625-.33007812.9104004-.08203125.22265624-.13964844.37939452-.13085938.36328124z"/>
    <path fill="rgb(255,255,255)" fill-rule="evenodd" d="M12.0782215 0L8.6871662 9.10276056l-.3632212-1.8503662C7.69202334 5.1204507 5.72492196 2.80966198 3.52459016 1.65180283l3.10234102 11.6771831 3.66669124-.00216902L15.7496685 0h-3.671447"/>
    <path fill="rgb(236,152,45)" fill-rule="evenodd" d="M5.633 0H.04597235L0 .27664789c4.34735945 1.106 7.22380184 3.77566197 8.41769585 6.9848169L7.20358986 1.12650704C6.99413825.28039437 6.38540092.02957746 5.633 0"/>
  </g>
</svg>
